<?xml version="1.0" encoding="utf-8"?>

<!DOCTYPE svg PUBLIC "-//W3C//DTD SVG 1.1//EN" "http://www.w3.org/Graphics/SVG/1.1/DTD/svg11.dtd">
<svg version="1.1" id="Layer_1" xmlns="http://www.w3.org/2000/svg" xmlns:xlink="http://www.w3.org/1999/xlink" x="0px" y="0px"
	 viewBox="0 0 1264 1720" style="enable-background:new 0 0 1264 1720;" xml:space="preserve">
<style type="text/css">
	.st0{fill:#020102;}
	.st1{fill:#030102;}
	.st2{fill:#030103;}
	.st3{fill:#020103;}
	.st4{fill:#040104;}
	.st5{fill:#040103;}
</style>
<g>
	<path class="st0" d="M1165.482,607.729c-33.471-44.448-68.52-49.784-113.86-35.49c3.316-4.206,18.793-17.53,24.641-49.219
		c3.929-21.084,2.628-42.73,6.144-63.852c19.372-31.076,31.29-67.616,29.181-103.86c-0.747-11.632-30.335,4.536-36.429,6.48
		c5.354-7.786,42.947-50.378,41.536-105.038c-0.746-15.964-32.222,17.217-45.145,23.14c34.414-66.495,45.541-125.145,8.955-204.905
		c-21.294-41.629-106.986,12.591-144.65,43.583c-69.505,57.497-132.073,139.729-183.182,186.296
		c-13.152-11.044-35.894-15.5-52.815-18.136c-2.01-0.431-3.904,0.704-5.043,2.287c-18.674-11.703-46.97-8.234-62.7,13.443
		c-15.121-20.87-42.889-25.609-62.692-13.447c-0.785-0.892-1.6-1.864-2.79-2.176c-1.974-0.626-39.03,4.362-55.021,18.016
		c-68.227-61.367-164.51-198.438-263.258-235.605c-27.613-10.479-53.501-15.835-64.56,5.457
		c-38.628,83.937-22.771,144.335,8.686,205.119c-13.562-6.135-24.627-21.491-39.151-26.873c-2.782-1.105-6.054,1.254-5.994,4.215
		c-0.788,39.077,17.44,73.918,41.595,104.654c-5.511-1.668-35.664-18.322-36.455-6.544c-2.164,36.151,9.813,72.89,29.21,103.967
		c6.449,38.884-3.185,76.865,30.789,113.016c-12.728-3.28-46.286-17.06-81.48,4.688c-11.042,6.809-42.73,34.255-30.128,37.786
		c27.205,6.544,54.569,12.739,82.376,16.135c-46.316,9.694-74.144,29.938-77.555,81.1c-0.277,2.325,1.476,4.706,3.831,4.991
		c21.651,2.009,44.164,1.148,64.543-7.125c-18.865,38.526-7.828,76.607-63.306,66.13c-3.191-0.559-5.994,3.037-4.74,6.007
		c8.039,20.304,18.334,38.401,35.256,51.259c-21.66,0.407-28.325-2.346-24.437,8.293c8.841,22.709,22.131,36.374,39.407,48.481
		c-10.418-0.203-23.818-5.104-24.13-5.124c-3.123-0.047-5.418,3.605-3.989,6.399c14.837,30.729,35.888,57.995,65.26,75.908
		c-4.101,10.6-3.167,20.926,2.457,31.032c-14.33,29.479-14.163,72.052,5.96,106.173c-13.939-5.86-15.732-16.171-18.229-17.777
		c-1.783-1.288-4.501-0.994-5.909,0.713c-1.279,1.403-11.99,32.011,16.199,56.454c12.359,10.67,27.001,18.157,41.258,25.909
		c-13.52-0.166-26.433-4.97-38.502-10.695c-2.905-1.549-6.745,1.049-6.416,4.304c3.687,21.625,16.021,36.84,38.195,43.238
		c3.008,0.951,6.143,1.399,9.172,2.252c-18.575,4.01-37.15,9.479-53.6,19.219c-11.717,5.811,30.16,36.737,77.922,29.287
		c-14.669,9.869-71.356,39.98-53.012,86.484c0.729,1.804,2.73,3.008,4.676,2.705c26.625-4.467,51.536-16.736,72.602-33.434
		c-16.59,31.592-26.348,61.453-13.959,98.387c3.286,10.974,31.943-14.969,39.373-23.229c-4.044,27.056,16.221,54.43,52.564,62.299
		c-44.136,13.154-74.177,32.426-68.592,77.935c0.226,1.937,1.847,3.592,3.78,3.878c2.359,0.36,38.673-9.681,72.171-28.336
		c-18.746,30.957-24.051,57.271-0.862,89.291c2.747,3.733,3.632,3.733,7.769,2.782c25.606-6.256,35.412-23.398,43.063-45.085
		c12.499,67.978,90.695,95.349,93.711,95.324c2.001-0.021,3.844-1.57,4.228-3.524c5.679-27.591-11.161-56.272-25.281-80.439
		c72.587,54.332,110.255,64.436,132.807,95.887c0.7,0.943,1.792,1.613,2.986,1.724c5.48,0.29,4.755-1.005,8.212-5.085
		c26.445-33.108,78.429-48.739,132.397-93.656c-5.852,11.639-32.592,48.355-25.951,81.318c0.286,1.792,1.741,3.341,3.558,3.652
		c1.005,0.224,80.863-24.033,94.428-95.251c7.709,21.804,17.378,38.692,42.863,45.047c1.519,0.341,3.153,0.939,4.701,0.35
		c2.811-0.95,17.481-20.822,18.494-42.662c1.019-19.284-7.078-35.224-16.079-49.697c12.522,6.852,28.469,15.989,69.966,28.157
		c2.449,0.87,5.422-0.772,5.905-3.345c6.143-45.882-24.812-65.087-68.421-78.297c38.824-9.092,55.978-36.555,52.534-62.111
		c9.197,9.615,17.898,17.353,32.632,25.567c1.437,0.87,5.181,1.914,7.129-3.886c11.653-36.336,2.147-65.534-14.313-96.83
		c29.952,22.234,73.866,39.954,77.342,30.162c14.194-38.015-18.631-65.365-53.375-86.13c29.311,4.814,55.183-2.29,78.899-21.877
		c11.247-9.622-39.945-23.432-54.326-26.565c2.063-0.817,12.945-1.971,23.835-8.605c20.327-12.341,32.03-48.048,15.154-40.328
		c-11.463,5.354-23.741,9.65-36.519,9.842c4.698-3.14,34.116-16.3,48.703-33.468c17.502-20.516,12.792-56.804,2.845-49.637
		c-2.432,1.52-4.583,12.095-18.217,17.735c20.59-36.327,19.766-77.577,5.905-106.117c5.275-9.764,6.837-19.935,2.461-31.037
		c29.248-17.869,50.171-44.691,65.149-75.674c1.546-2.828-0.484-8.476-7.048-5.819c-6.749,2.509-13.878,4.078-21.083,4.364
		c17.004-12.119,31.409-25.953,40.422-51.049c0.61-1.885-0.265-4.07-1.958-5.06c-2.034-1.311-4.209-0.295-23.366-0.729
		c11.035-8.818,22.151-19.97,33.788-47.7c0.628-1.62,4.026-7.472-1.271-9.343c-1.212-0.482-2.517-0.162-3.724,0.073
		c-52.694,10.397-43.755-29.649-61.664-66.463c20.414,8.319,42.999,9.189,64.701,7.159c2.257-0.35,3.98-2.615,3.72-4.889
		c-3.401-49.345-29.293-71.744-77.474-81.143c23.236-3.346,33.024-4.493,82.005-16.101
		C1165.947,614.222,1167.385,610.178,1165.482,607.729z M1147.573,600.69c-18.052-8.018-25.799-9.059-37.15-11.049
		c3.272-3.208,6.749-6.203,10.162-9.266C1133.468,586.211,1144.85,597.167,1147.573,600.69z M1083.503,574.299
		c10.333-0.938,20.892,0.09,30.729,3.469c-0.749,1.129-8.658,8.125-10.166,9.339c-4.257,4.195,0.635-0.467-35.264,3.771
		C1069.348,590.166,1082.603,574.356,1083.503,574.299z M1073.46,575.814c-0.768,1-13.642,16.955-15.572,17.154
		c-9.518,1.877-18.805,4.714-28.187,7.099c2.261-4.117,5.175-7.841,7.683-11.813C1038.646,585.837,1065.115,576.753,1073.46,575.814
		z M1071.557,688.621c-2.341-1.419-8.767-6.612-9.987-8.238c-1.715-1.007-3.003-2.555-4.509-3.814l-0.021-0.329
		c-0.226-0.158-0.674-0.473-0.9-0.635c-0.145-5.7-0.192-11.412-0.145-17.116c2.913,1.477,15.259,9.313,17.79,10.828
		C1073.321,673.778,1071.557,688.613,1071.557,688.621z M987.437,672.716c20.453,10.127,39.608,23.623,50.806,43.374
		c-10.051-7.257-22.602-11.101-35.004-10.175c-3.08,0.538-4.305,4.475-2.62,6.933c4.607,7.107,9.462,14.108,13.311,21.668
		c0.333,0.508,0.789,1.015,0.755,1.689c2.045,2.061,10.07,19.325,10.644,22.214c1.501,2.311,21.773,45.751-1.28,87.026
		c-1.399,2.333-2.611,4.808-4.411,6.877c-0.54-4.421,0.481-19.805-13.609-35.217c-1.664-2.065-3.776-3.703-5.41-5.776
		c-5.962-2.683-6.641,1.027-8.097,2.935c-0.001,0.041-5.805,21.827-7.585,29.142c-0.017,0.135-2.103,12.846-2.261,13.443
		c-0.189,24.346,3.88,23.864,5.017,28.554c2.244,2.44,3.925,5.401,6.561,7.487c1.024,0.977,2.449,1.617,3.144,2.914
		c4.4,1.227,4.518,4.559,23.69,8.31c-8.608,12.923-28.529,7.691-33.716,7.27c-8.989-0.785-2.793,14.814,1.728,20.337
		c0.546,0.764,1.301,1.459,1.557,2.41c1.591,0.994,2.995,2.278,4.258,3.673c1.49,0.638,21.916,16.466,46.587-7.538
		c1.6-1.497,2.777-3.456,4.689-4.612c-0.124,2.099-0.158,4.266-0.858,6.28c0.097,2.926-2.945,16.435-11.527,27.312
		c-15.413,18.335-34.832,15.284-40.465,11.711c-9.359-2.406-23.498-15.849-25.03-18.976c-1.226-0.677-4.808-5.273-5.699-6.997
		c-1.056-1.076-5.317-7.044-5.879-8.904c-1.323-0.892-1.621-2.713-2.986-3.55c-1.95-1.267-4.782-0.832-6.182,1.041
		c-0.823,1.246-1.084,2.777-1.941,4.006c-0.245,2.063-4.516,12.902-5.179,14.181c-1.304-2.182-4.441-10.824-4.676-13.541
		c-4.715-7.538-5.046-41.099-1.783-49.356c-0.366-1.913,4.065-17.654,5.896-20.904c0.132-1.374,0.819-2.607,1.306-3.874
		c10.965-27.421,14.789-23.301,11.757-30.38c-1.22-0.606-2.487-1.408-3.891-1.237c-3.246,0.282-24.712,23.132-28.588,25.503
		c2.329-18.914,34.377-57.173,36.455-58.357c0.132-0.964,0.913-1.638,1.468-2.376c37.685-45.197,33.603-53.927,31.237-71.258
		c-5.724-37.251-40.362-49.214-62.53-34.714c-2.167,1.314-3.844,3.268-6.007,4.573c-0.406,1.002-16.429,23.845-20.303,26.852
		c1.015-3.545,2.7-6.856,3.844-10.358c5.798-15.977,8.908-32.751,14.228-48.869c1.763-5.424,4.564-9.364,0.503-11.86
		c-1.859-1.506-49.508-6.229-87.363,0.482c-1.595,0.234-3.14,0.892-4.765,0.738c-8.544,2.637-6.302,0.34-33.042,10.009
		c5.894-4.281,19.616-12.825,21.404-12.982c0.661-1.011,1.843-1.416,2.85-1.988c42.2-22.632,77.697-28.759,82.167-30.371
		c2.159-0.631,4.095-1.911,6.331-2.291c0.785-1,28.635-14.481,18.541-45.618c-3.731-12.059-13.023-22.649-24.714-27.299
		c-3.225-1.361-6.689-1.877-10.064-2.679c-3.108,0.274-11.099-1.494-24.629,4.501c-2.329,0.9-4.351,2.462-6.736,3.208
		c-0.442,0.477-9.287,6.688-9.88,6.954c0,0-10.27,9.186-18.212,19.415c-0.759,0.943-1.404,1.988-2.274,2.837
		c-0.418,0.154-0.764,0.068-1.045-0.256c-14.23-12.315-9.24-30.378-5.328-33.007c1.433-3.396,4.253-5.96,6.839-8.498
		c18.083-16.265,40.144-14.625,45.499-19.407c0.073-1.51,0.235-3.08-0.371-4.505c-11.528-29.205-45.988-33.334-50.52-35.435
		c2.099-0.734,4.258-1.361,6.498-1.472c2.525-0.945,21.057-4.954,37.73,2.684c29.691,13.408,28.439,40.876,39.872,34.889
		c2.146-4.556,2.982-9.595,3.831-14.518c4.026-20.769-4.875-40.319-5.9-43.195c21.184,12.718,29.696,44.49,29.748,49.215
		c0.817,1.239,3.603,14.245,3.895,19.087c2.257,7.133-0.376,16.609,8.989,13.818c5.529-7.77,8.755-14.097,8.848-14.232
		c0-0.001,5.141-15.742,5.141-15.742c0.457-4.71,1.485-9.36,1.634-14.104c0.264-12.567-0.781-20.209-0.781-20.209
		c0.644,0.546,1.275,1.135,1.89,1.745l-0.277,0.23c15.938,20.154,20.251,45.455,18.038,58.895
		c0.611,3.394-1.089,13.246-1.638,14.859c-0.07,1.253-1.858,11.816-5.179,16.617c-0.304,1.147-24.582,55.84-24.582,55.84
		c0.111,2.304,2.278,4.006,4.484,4.108c3.904,0.251,7.59,1.664,11.416,2.363c4.692,1.113,39.788,4.48,58.084,37.444
		c-11.287-3.714-28.127-8.508-42.611,0.887C982.608,668.413,981.388,669.699,987.437,672.716z M827.079,1038.179
		c3.305,3.84,17.747,28.323,2.176,48.464c-3.006-13.312-9.122-28.516-22.282-33.801c-8.674-3.992-20.192-3.469-22.308-2.282
		c-4.376,2.371-1.028,7.275-0.248,9.07c14.617,32.461,8.317,68.524-5.089,80.209c-10.098,22.323-88.17,7.375-147.209,52.15
		c-8.364-6.603-18.534-12.414-18.541-12.419c-0.866-0.269-1.707-0.653-2.381-1.242c-82.062-31.833-101.206-18.798-120.793-33.293
		c-24.737-19.521-22.47-61.129-8.908-88.775c4.004-9.737-18.252-7.643-27.871-1.408c-1.954,1.148-3.537,2.803-5.418,4.044
		c-1.348,1.711-2.73,3.409-4.202,5.013c-2.691,5.407-4.604,5.833-8.968,22.73c-5.265-7.21-7.918-16.365-6.817-25.264
		c2.875-24.813,22.467-32.074,10.461-37.385c-33.699-2.73-58.736,2.889-61.062,36.911c-38.639-48.272-125-53.313-164.91-83.536
		c73.743,32.122,176.431,9.643,217.738,24.13c0.299-0.013,0.887-0.043,1.182-0.055l-0.307,0.132
		c32.146,6.892,53.064,25.431,53.583,30.772c4.626,55.396,51.618,79.094,53.703,80.998c0.001,0,16.322,8.093,16.322,8.093
		c5.045,5.438,20.758,33.269,77.568,33.161c41.029-0.196,58.105-13.655,74.586-30.49c3.204-5.639,4.805-1.899,23.72-14.343
		c1.489-0.969,2.888-2.082,4.488-2.863c0.418-0.533,0.973-0.934,1.608-1.177c2.898-2.792,9.42-6.947,18.528-17.436
		c1.293-1.451,2.359-3.106,3.823-4.398c3.212-5.475,16.19-20.517,19.718-48.127c0.286-1.732,0.17-3.528,0.738-5.201
		c1.99-2.8,8.842-8.883,10.512-9.735c34.401-34.339,134.716-21.865,182.755-26.207c50.399-3.361,71.693-15.129,76.006-15.947
		c0.431-0.653,1.382-0.674,2.078-0.951c-0.738,0.644-1.566,1.19-2.445,1.608c-5.991,9.539-78.693,31.728-103.395,41.954
		c-26.605,10.998-35.734,19.168-39.266,21.002c-2.116,2.12-4.723,3.694-6.898,5.764c-2.654,2.125-4.842,4.77-7.47,6.911
		c-1.455,2.142-3.323,3.955-4.945,5.968c-1.653-27.584-18.477-35.083-41.006-37.777c-3.369,0.013-19.831-0.206-22.381,1.997
		C818.807,1029.345,824.87,1033.021,827.079,1038.179z M725.991,1317.773c0.41,0.538,0.815,1.092,1.246,1.651
		c1.199,0.529,2.474,1.041,3.831,0.84c19.348-2.017,27.62-11.631,30.281-13.289c1.826-2.372,4.061-4.424,5.747-6.916
		c0.9-1.195,1.587-2.555,2.662-3.601c2.133-4.249,4.595-8.353,6.31-12.807c17.648,28.498,23.206,65.184,12.76,103.395
		c-6.597,24.224-18.646,44.362-21.975,48.554c0.383-2.276,8.091-22.818-3.639-44.198c-0.973-1.877-2.304-3.541-3.217-5.439
		c-1.987-2.048-11.119-16.121-34.782-23.195c0.288-54.969-29.063-119.547-77.299-158.459c28.96,3.778,63.829,15.383,81.612,38.596
		c1.523,2.116,3.225,4.177,4.164,6.647c2.336,2.286,15.701,26.038-5.495,61.088C725.493,1315.178,725.677,1314.186,725.991,1317.773
		z M715.953,1365.55c-0.237,4.595,4.029,5.039,5.618,5.567c20.378,6.102,34.736,18.221,38.75,39.117l-0.077,0.397
		c5.285,34.537-31.236,75.912-72.265,43.178c-1.544-1.194-2.884-2.769-4.774-3.409c-3.311-1.155-7.935,2.929-4.463,7.551
		c16.769,22.402,9.316,53.402,2.457,61.561c-0.23,0.87-0.635,1.711-1.369,2.282c-0.452,1.364-4.082,5.695-5.043,6.719
		c-15.581,20.284-53.93,23.464-74.543,9.33l-0.064-0.269c-19.784-8.371-36.74-50.876-14.59-79.872
		c1.365-1.787,1.438-4.569-0.307-6.126c-4.365-4.878-7.98,3.475-19.317,8.839l-0.303-0.038c-1.869,1.72-16.186,8.63-31.775,3.195
		c-39.315-14.847-38.839-74.367-5.435-86.489c3.283-2.767,16.012-6.569,17.014-6.903c4.99-1.89,1.14-7.915,3.042-18.75
		c1.464-53.64,44.785-125.03,83.57-147.653C684.434,1239.047,716.19,1309.754,715.953,1365.55z M496.709,1433.711
		c0.38,0.84,0.704,1.719,0.969,2.628c-0.35-0.555-0.738-1.071-0.956-1.664c-22.921-29.589-41.794-98.57-8.656-151.045
		c2.569,5.995,6.327,12.816,6.327,12.816c11.59,14.91,8.362,9.606,13.524,14.804c1.005,0.528,19.359,12.045,28.972,8.144
		c0.503-0.755,1.003-1.51,1.523-2.244c0-1.357-0.004-2.777-0.798-3.921c-38.033-59.842,10.87-100.275,78.315-108.865
		c-3.666,3.659-14.639,10.992-34.548,36.186c-0.414,1.001-43.33,56.673-42.274,119.88c-0.132,0.853,0.35,2.381-0.875,2.594
		c-14.283,4.57-20.517,10.25-23.05,11.553c-0.001,0.001-8.446,8.011-8.447,8.012c-1.51,2.466-3.485,4.62-4.885,7.167
		C489.113,1410.931,496.668,1431.85,496.709,1433.711z M243.37,903.999c2.406-0.781,4.936-1.028,7.363-1.732
		c13.018-3.734,14.406-6.48,18.212-8.524c2.536-3.473,26.253-16.817,1.348-82.402c-4.202-3.218-7.001,0.235-8.34,1.502
		c-11.214,10.92-17.422,23.256-17.112,39.113c-2.264-1.852-13.964-19.989-15.29-43.17c-1.499-49.913,35.054-98.039,34.518-97.039
		c4.898-9.139-17.477-7.217-30.627-0.393c-2.466,1.148-4.62,2.829-7.022,4.091c18.108-36.348,65.456-42.407,53.626-51.634
		c-3.283-2.436-12.005-4.514-15.729-4.582c-7.489-0.139-12.175-0.475-25.951,4.467c9.561-15.909,24.816-28.341,42.415-34.292
		c37.081-7.609,32.655-5.644,30.055-14.633c-2.019-2.08-9.121-19.085-9.386-20.085c-1.213-2.083-13.486-30.211-13.618-30.729
		c-3.546-5.494-6.016-19.693-6.101-22.568c-0.579-1.698-1.327-9.539-0.798-12.304c-1.901-20.756,7.974-44.421,19.548-57.329
		c-0.16,8.256-1.792,10.696,0.337,28.869c0.333,2.794,1.288,5.482,1.485,8.298c0,0.001,5.077,14.138,5.077,14.138
		c0,0,4.583,8.111,7.436,11.694c1.677,2.244,5.631,2.15,7.107-0.269c1.335-2.155,0.862-4.855,1.766-7.159
		c-0.012-1.832,1.018-9.343,1.608-10.346c0.461-4.154,3.157-17.72,4.33-19.117c0.089-2.248,2.853-10.32,3.754-11.625
		c2.282-9.468,14.94-27.779,24.676-32.449c-8.852,26.434-5.982,25.957-6.728,36.007c0.193,0.763,1.282,9.783,1.297,10.994
		c1.169,3.153,1.762,6.506,2.632,9.761c7.044,6.779,9.494-4.851,13.135-8.481c1.794-4.16,23.88-41.357,72.073-26.668
		c-35.772,7.964-42.529,22.648-46.088,25.789c-4.53,8.933-7.765,12.115-2.892,16.182c28.145,4.04,43.153,15.059,46.561,20.866
		c4.027,3.671,8.39,12.622,7.594,18.554c0.722,4.961-3.04,14.704-10.158,19.919c-6.957-8.596-16.516-21.075-32.355-30.277
		c-15.598-8.317-32.38-10.08-46.813-0.576c-9.482,6.491-12.255,12.817-14.787,16.378c-0.938,2.692-2.351,5.222-3.02,8.016
		c-0.734,2.133-0.836,4.42-1.557,6.553c0.196,1.531-0.115,3.067-0.183,4.607c-0.102,1.958,0.422,3.899,0.273,5.866
		c0.708,3.119,1.271,6.306,2.632,9.232c7.935,18.788,29.015,22.241,31.804,23.251c5.93,0.426,31.178,8.65,34.232,10.397
		c2.362-0.186,36.179,14.597,39.979,17.892c2.738,1.034,17.327,9.438,23.029,13.955c-6.453-1.235-32.488-16.245-99.846-12.944
		c-12.262,0.966-20.162,1.291-23.933,1.95c-1.425,1.549-2.961,3.605-1.971,5.815c7.7,19.97,5.111,22.001,20.759,66.25
		c-3.699-3.177-13.04-16.276-17.129-22.568c-15.25-22.951-55.555-21.184-68.69,12.662c-8.54,21.227-5.583,35.907,4.121,52.342
		c15.423,25.769,57.78,65.614,62.056,92.824c-5.426-3.503-25.526-26.202-29.437-25.994c-2.765-0.192-5.107,2.799-4.373,5.452
		c1.683,5.059,12.45,18.098,20.085,50.516c0.299,1.433,0.806,2.85,0.742,4.343c2.949,8.317,2.885,36.336-7.261,59.07
		c-1.099-1.815-6.453-16.316-6.954-18.012c-2.646-3.035-6.252-2.52-7.922,0.35c-11.481,18.588-22.045,27.529-23.579,28.076
		c-1.647,1.779-3.66,3.43-5.93,4.292c-1.833,1.722-12.644,8.642-27.001,6.48c-25.244-4.83-34.933-35.602-34.334-47.333
		c5.443,4.244,18.475,24.078,45.934,15.179c1-0.706,15.572-7.591,17.551-24.876C283.049,904.107,254.118,921.371,243.37,903.999z
		 M197.171,637.887c14.89-2.087,41.443-3.832,43.72-3.921c-11.197,5.242-29.403,15.264-29.403,15.264
		C210.029,648.208,198.312,639.08,197.171,637.887z M208.046,675.656c-1,0.818-10.243,9.656-15.371,12.969
		c-2.674-19.263-2.647-19.34-1.647-19.663c2.729-1.674,14.188-8.903,17.129-10.439C208.208,664.231,208.08,669.943,208.046,675.656z
		 M254.411,520.601c4.701,7.227,8.818,14.816,12.854,22.432c0.678,1.046-4.512,13.232-4.974,14.232
		c-5.653-6.574-11.147-13.289-16.758-19.897C246.31,535.719,253.422,522.128,254.411,520.601z M242.606,529.492
		c-0.367,1.238-0.067,0.531-1.28,2.739c-1.037-1.016-16.796-19.371-16.6-20.806c0.03-1.007,0.989-20.932,1.617-25.29
		c8.217,6.215,23.946,26.927,24.091,28.656C250.097,515.801,244.08,527.502,242.606,529.492z M271.348,551.13
		c4.572,9.768,13.914,34.727,14.044,35.192c-0.286-0.281-18.303-23.138-18.46-23.34C267.136,561.354,270.806,552.185,271.348,551.13
		z M290.733,604.504c-17.744-5.185-41.132-14.956-56.621-26.113c9.134-4.202,18.366-8.2,27.577-12.24
		C271.847,578.565,281.706,591.245,290.733,604.504z M275.379,611.206c-16.054-3.629-29.743-7.676-31.583-8.434
		c-2.419-3.247-4.531-6.728-6.843-10.055c-0.956-0.555,0.802-0.998,0.341-0.047C238.383,592.448,274.447,610.705,275.379,611.206z
		 M242.948,608.877c32.756,9.468,36.499,9.087,41.058,9.979c-6.907,3.775-49.253,6.476-55.23,5.776
		C230.461,622.546,241.766,610.043,242.948,608.877z M220.768,624.312c-3.112,0.514-20.989-0.716-32.892-2.095
		c5.422-7.931,11.203-15.627,16.796-23.443c10.682,2.21,21.199,5.167,31.655,8.255C234.932,608.77,222.409,622.617,220.768,624.312z
		 M214.313,654.815c13.975-8.165,27.494-14.795,30.473-15.862c-0.755,0.884-29.056,29.481-30.601,30.401
		C214.065,664.508,214.258,659.657,214.313,654.815z M526.982,611.658c1.135-0.785,0.998,1.817,0.081,0.635
		c-21-7.809-30.927-19.5-34.932-22.402c-6.262-0.591-6.964,4.221-5.619,6.57c23.672,48.201,28.593,48.776,32.18,54.91
		c1.04,0.918,5.012,5.49,5.439,6.288c0,0,12.363,13.187,29.509,25.226c1.728,1.297,3.724,2.274,5.201,3.891
		c12.849,6.761,25.087,37.045,29.701,51.237c25.487,79.826,16.66,181.68,13.14,189.671c-0.044,4.045-3.256,22.396-4.778,26.442
		c0.175,2.274-0.789,4.569-1.514,6.724c-0.036-1.287,0.304-28.975,0.491-30.188c0,0-1.728-40.434-1.728-40.435l-0.273-0.094
		c-0.436-8.898-1.613-14.98-1.399-17.999c-0.58-1.177-0.469-2.59-0.708-3.857c-12.917-131.103-85.799-186.078-90.772-192.623
		c-1.523-1.066-3.008-2.252-4.202-3.682c-0.001-0.001-20.567-15.887-20.567-15.887c-1.07-0.462-7.966-5.077-8.835-5.875
		c0,0-20.35-12.82-43.583-22.632c-0.52-0.235-0.985-0.546-1.433-0.858c-0.602-0.136-1.207-0.281-1.706-0.627
		c-0.001,0-19.75-7.923-40.222-13.622c-3.364-1.212-11.345-1.875-15.465-4.108c-27.759-7.331-25.543-51.918,7.304-59.377
		c24.492-4.408,50.078,22.983,57.973,36.621c1.877,1.581,3.567,3.984,8.131,0.521c28.472-21.254,22.305-63.695-38.396-76.437
		c10.108-19.503,38.456-25.346,60.166-28.089c10.028-7.848-7.657-11.07-10.247-12.79c-6.879-1.3-9.542-4.835-35.495-5.964
		c17.019-26.831,54.735-38.738,84.006-7.598c1.267,1.318,2.564,2.636,3.477,4.245c1.401,1.215,5.516,6.856,6.515,9.258
		c4.582,5.767,15.261,29.12,16.962,56.702c-20.724-10.287-36.062-54.625-40.021-28.472
		C479.354,541.711,496.131,579.568,526.982,611.658z M690.522,1021.375c0.947,1.001,6.572,13.905,3.212,27.619l-0.158,0.162
		c-1.152,4.744-3.515,9.151-6.374,13.084c-1.698-2.988-2.287-3.144-5.725-6.237c-1.07-0.361-6.741-4.363-15.712-4.654
		c-26.403-1.266-40.75,22.35-10.789,33.084c-7.228,3.34-17.908,5.044-22.402,16.13c-0.073,1.515-0.516,2.986-1.135,4.369
		c-3.43-7.702,1.739-10.263-23.251-20.384c14.071-3.902,17.839-10.635,17.679-16.369c0.427-18.117-39.118-24.315-49.368-5.183
		c-10.604-12.156-9.704-26.516-4.428-41.139c17.627-46.744,77.393-29.105,86.873-29.825c-0.252,0.064-0.76,0.188-1.015,0.252
		C683.316,996.914,690.874,1020.237,690.522,1021.375z M700.889,690.327c1.588-1.602,26.361-20.273,26.361-20.273
		c0.001-0.001,15.234-15.208,15.235-15.209c4.063-6.465,10.887-8.852,35.107-58.464c1.169-2.082,0.183-4.462-1.357-6.024
		c-7.238-3.281-7.672,7.809-32.41,19.155c-2.316,1.032-4.612,2.206-7.107,2.726c1.928-2.449,4.326-4.484,6.348-6.86
		c27.216-29.826,31.919-57.557,33.157-60.23c0.156-1.009,7.244-31.557,1.66-52.786c-0.67-2.321-3.409-3.622-5.661-2.884
		c-1.369,0.371-2.09,1.698-3.144,2.53c-7.488,10.888-20.419,28.808-30.409,33.485c-0.458-12.321,7.926-40.552,9.475-41.327
		c0.253-2.28,3.972-9.766,5.051-11.135c1.68-4.017,7.273-11.962,8.643-13.089c2.062-3.344,9.122-10.097,11.071-11.105
		c2.086-2.291,4.885-3.75,7.479-5.375c30.189-17.79,58.967,4.799,61.548,10.328c2.123,1.301,6.414,6.835,7.777,9.053
		c-13.243,0.578-18.119,1.177-18.119,1.177c0,0-21.786,6.352-21.787,6.353c-4.817,3.266-7.184,0.832-8.976,7.419
		c2.156,4.574,3.361,3.612,9.573,4.654c20.622,3.178,43.452,9.053,53.66,27.167c-5.337,0.93-10.465,2.701-15.691,4.057
		c-1.135,0.786-19.657,6.45-30.115,19.719c-1.472,1.647-2.508,3.618-3.95,5.281c-1.281,3.115-7.696,13.432-3.601,27.09
		c0.661,2.474,1.954,4.71,2.769,7.133c22.773,29.75,17.238,8.197,34.855-4.688c1.832-2.587,9.394-8.919,11.514-9.893
		c2.518-2.496,10.779-6.794,13.191-7.201c22.164-11.628,51.122,11.911,44.377,38.327c-0.615,1.979-1.084,4.117-2.47,5.729
		c-0.755,2.104-2.167,4.096-3.985,5.41c-8.413,11.706-44.94,12.434-83.323,32.658c-0.875,0.371-1.702,0.969-2.666,1.024
		c0,0-25.012,12.459-46.403,28.797c-1.152,0.9-2.265,1.868-3.579,2.525c-2.658,2.579-23.77,18.454-42.346,42.837
		c-0.729,0.921-1.399,1.916-2.304,2.679c-0.725,1.519-1.826,2.807-2.811,4.155c-31.078,42.817-40.618,84.836-43.178,91.156
		c-0.009,0.294-0.03,0.883-0.038,1.182l-0.115-0.294c-2.976,14.172-8.44,21.073-15.226,99.765
		c0.018,0.597-0.594,19.997-0.691,20.597c0.071,0.558,0.413,33.362,0.396,33.553c-2.604-9.037-6-27.461-5.938-30.431
		c-0.957-2.802-4.984-39.48-4.377-51.698C654.416,846.734,663.297,728.222,700.889,690.327z M937.189,966.149
		c1.254,2.035,4.245,2.654,6.199,1.246c2.355-1.532,3.965-9.297,8.942-21.003c13.495,19.368,27.413,32.106,49.718,35.896
		c-55.379,13.897-144.174-11.923-211.979,27.048c-0.107,0.495-0.388,0.704-0.853,0.636c-0.311-0.435,0.247-1.301,0.768-0.947
		c-0.299-0.631,0.324-1.16,0.542-1.685c32.851-56.647,90.602-88.158,124.769-131.177c1.688-2.326,17.457-17.176,18.46-17.973
		C931.337,865.692,908.28,913.276,937.189,966.149z M909.289,867.289c-0.136,0.879-0.021,1.898-0.657,2.624
		c-19.32,24.489-91.872,63.797-128.963,131.331c-0.371,0.802-0.777,1.613-1.425,2.235c-0.256-1.493-0.388-2.99-0.589-4.479
		c-2.753-17.666-18.887-49.016-17.043-54.415c23.088-54.573,73.034-83.274,167.623-123.519
		C922.294,830.267,911.19,847.04,909.289,867.289z M756.687,1069.519c-11.226,17.246-32.866,33.111-41.719,35.964
		c-6.636,4.703-56.351,24.768-75.917,7.035c1.616-3.654,0.013-11.85,5.819-14.091c1.577-1.948,19.823-8.488,20.823-8.677
		c20.739-10.634,21.818-15.928,26.519-19.548c1.647-2.713,3.703-5.154,5.166-7.978c1.502-2.321,2.325-4.983,3.626-7.406
		c-0.03-1.732,0.793-3.315,1.195-4.961c1.689-5.401,0.87-11.122,0.969-16.672c-1.133-3.03-5.639-29.348-23.451-40.853
		c-0.239-2.713-0.555-5.427-0.452-8.153c-0.201,0.23-0.388,0.478-0.563,0.734c0.123-1-3.088-70.045,0.469-96.087
		c2.015-41.189,17.073-95.399,20.009-99.061c0.156-1.681,2.362-7.75,3.259-8.648c0.136-1.715,0.789-3.34,1.719-4.77
		c2.037-6.429,9.203-21.198,10.324-22.474c1.141-3.835,12.815-23.559,15.192-25.7c-0.64,2.167-1.22,4.381-2.321,6.374
		c-3.652,11.834-6.139,24.829-6.139,24.829c0,0.066-2.188,21.758-2.188,21.758c-0.075,12.225,0.631,40.409,0.631,40.409
		c0.145-0.427,0.307-0.84,0.486-1.241c6.917,91.051,36,134.379,46.793,173.819C766.937,999.111,781.118,1027.709,756.687,1069.519z
		 M494.086,1031.145c-5.806-24.326,14.875-69.549,27.069-104.172c25.297-70.293,21.691-108.872,23.771-117.278
		c0,0,0.522-14.859,0.218-27.718c0,0-1.039-13.2-1.719-19.07c-0.418-3.038-1.395-5.99-1.374-9.078c0,0-4.24-17.277-6.058-21.331
		c-0.819-1.506-1.404-3.135-1.647-4.829c1.182,0.896,1.954,2.176,2.696,3.443l-0.192,0.256c1.985,2.342,11.189,17.997,12.014,20.729
		c3.21,4.749,13.175,27.304,13.763,31.083c1.315,2.183,5.481,14.837,5.887,16.997c0.8,1.021,3.558,10.206,3.601,12.897
		c1.365,2.366,5.582,21.544,5.576,23.37c4.479,14.879,9.106,63.246,8.929,81.873c1.904,2.989-0.728,68.61-1.916,72.692
		c-1.566,1.732-3.631,2.986-5.589,4.236c-6.173,7.697-1.593,0.224-10.674,14.023c0,0-2.341,4.942-5.021,11.63
		c-0.968,2.504-1.54,5.145-2.53,7.645c-0.009,1.651-0.546,3.255-0.793,4.889c-0.614,3.055-0.294,6.186-0.602,9.275
		c0.597,2.585,0.687,5.273,1.455,7.837c0.478,2.193,1.523,4.245,1.89,6.468c1.31,2.214,2.427,4.539,3.575,6.847
		c1.442,1.711,2.752,3.554,3.848,5.52c0,0,6.144,7.185,13.571,12.479c0.465,0.35,0.9,0.764,1.31,1.216
		c0.021,0.008,8.823,5.472,17.747,8.72c0.806,0.32,1.753,0.469,2.415,1.101c2.614,0.495,10.85,3.503,12.735,5.486
		c5.229,2.285,4.594,8.091,5.858,14.104c-1.379,3.475-16.048,10.808-42.973,4.659c-29.261-6.538-50.584-22.071-52.589-25.085
		c-2.661-1.106-13.1-11.455-14.496-14.036c-3.604-3.38-11.548-15.517-13.477-22.125c-1.932-2.452-6.19-17.467-5.964-22.415
		C494.043,1032.744,494.005,1031.917,494.086,1031.145z M330.4,858.21c31.008,27.984,15.658,20.323,58.826,58.622
		c32.005,28.269,62.818,53.406,84.39,90.499c0.196,0.529,0.845,1.062,0.546,1.694c0.495-0.354,1.045,0.516,0.764,0.951
		c-0.486,0.068-0.772-0.145-0.858-0.64c-59.342-37.644-159.961-14.042-211.927-27.073c14.375-1.797,31.155-9.141,49.68-35.879
		c2.692,6.395,4.825,13.029,7.487,19.437c1.442,3.046,6.293,3.063,7.803,0.06c12.54-23.673,13.198-42.248,13.857-44.402
		C340.907,899.965,343.288,893.926,330.4,858.21z M355.076,869.324c-1.604-18.878-9.807-33.718-18.694-47.342
		c-1.199-0.294,0.367-1.425,0.521-0.29c1.009,0.387,81.48,34.898,115.085,59.684c23.004,16.937,41.659,38.301,52.295,65.221
		c-7.94,23.23-16.112,39.164-18.882,57.201c-0.905-1.331-1.647-2.765-2.304-4.219C444.162,931.714,367.99,889.94,355.076,869.324z
		 M445.11,758.061c-33.164-8.099-42.73-49.144-17.334-68.673c6.126-0.119,12.27,0.516,18.293,1.638
		C433.517,710.016,436.767,736.972,445.11,758.061z M450.361,692.494c13.032,23.747,6.27,51.625-1.694,62.764
		C441.837,739.428,437.196,709.619,450.361,692.494z M455.788,693.527c16.945,5.145,31.493,17.069,40.597,32.167
		c-2.073,19.209-21.498,35.766-44.846,33.507C463.493,739.378,465.592,715.333,455.788,693.527z M481.355,697.818
		c-35.591-28.88-69.751-14.231-83.506-11.638c-0.794-0.148-14.498-10.285-15.171-11.378c-1.779-0.81-9.621-6.675-10.269-7.683
		c-1.916-0.857-10.68-7.621-11.681-8.413c3.546-0.388,20.266-1.38,23.208-0.853c1.591-0.386,13.445-0.409,17.112,0.2
		c1.99-0.3,72.934-0.938,109.854,46.646c11.15,14.393,17.268,31.642,17.918,35.435c1.721,2.676,7.19,26.803,6.937,41.075
		c-1.989-1.024-18.548-14.042-30.247-22.884C505.27,726.894,499.593,714.783,481.355,697.818z M392.499,695.118
		c0.743,2.708,2.635,56.424,52.338,70.516c16.578,4.727,34.24,4.019,51.019,0.768c4.282-0.524-1.899-4.042,34.957,24.236
		c0.87,0.55,1.677,1.203,2.41,1.946c-1.005,0.06-113.948,1.216-152.811-58.05c-12.278-18.392-18.975-46.709-19.287-49.355
		c-0.662-1.188-4.35-15.288-4.599-16.292C358.037,669.718,391.486,694.337,392.499,695.118z M390.571,759.785
		c2.188,2.052,4.735,3.699,6.864,5.815c2.659,1.429,9.147,6.887,22.368,13.144c1.549,0.751,3.191,1.348,4.637,2.312
		c8.062,2,28.38,16.193,111.608,20.862c-1.112,25.545-3.132,41.95-6.13,59.782c-43.28-43.817-218.601-73.392-238.753-117.636
		c-9.022-9.786-7.727-28.572,0.021-36.066c5.6-11.751,30.468-20.631,44.889-5.934C338.747,704.708,356.457,736.182,390.571,759.785z
		 M431.402,823.526c0.903-0.314,18.948,6.443,19.778,6.954c4.868,1.425,9.535,3.481,14.283,5.264
		c-6.496,10.068-16.925,19.19-27.18,25.303c0,0-30.191-16.241-30.192-16.242C416.953,839.115,425.929,832.758,431.402,823.526z
		 M398.284,839.938c-0.533-0.118-26.666-12.117-28.217-13.067c8.724-4.283,17.764-8.916,23.882-16.728
		c9.556,3.34,19.087,6.753,28.677,9.991C419.811,826.994,400.842,839.126,398.284,839.938z M474.145,839.264
		c10.085,4.155,20.051,8.66,29.556,14.036c-6.766,21.103-21.483,36.769-24.416,39.057c-1.049-0.35-1.689-1.391-2.5-2.078
		c-14.147-13.702-27.128-21.505-29.97-23.805C463.072,855.205,468.197,847.702,474.145,839.264z M511.611,858.334
		c5.262,3.211,13.196,9.993,15.806,15.401c-4.47,21.298-13.792,48.122-14.778,49.782c-0.858,3.695-2.457,7.171-3.656,10.768
		c-2.904-4.273-6.853-15.875-23.502-35.077C496.636,887.554,505.582,875.408,511.611,858.334z M339.24,788.705
		c-4.343,6.152-11.118,9.851-17.402,13.695c-10.55-12.07-30.705-36.119-36.194-49.949C304.878,774.33,331,784.248,339.24,788.705z
		 M347.627,792.524c0,0,11.418,4.766,37.048,14.313c-4.967,5.79-18.551,12.107-25.648,14.996
		c-3.72-1.38-23.468-10.823-28.865-13.801C336.77,803.876,343.382,799.239,347.627,792.524z M612.007,1062.224
		c17.195,8.866-11.378,20.892-25.358,10.422C576.457,1065.417,596.779,1054.989,612.007,1062.224z M631.773,1117.987
		c13.437,14.457,38.149,14.005,57.479,9.599c-29.094,26.57-89.798,22.319-114.308,0.047
		C593.7,1132.03,618.91,1132.274,631.773,1117.987z M657.835,1060.347c11.015-2.061,21.409,2.257,22.308,7.517
		c0.31,4.968-8.435,8.938-17.368,8.822C645.648,1076.15,639.925,1064.032,657.835,1060.347z M856.051,844.802
		c-9.65,5.004-19.369,9.915-28.665,15.572c-0.619,0.294-1.331,1.02-1.992,0.431c-14.509-9.196-23.139-18.916-26.634-25.068
		c10.507-4.204,31.692-11.883,33.984-12.363C837.609,832.277,847.473,839.35,856.051,844.802z M841.524,820.168
		c9.582-3.234,19.095-6.677,28.652-9.979c6.135,7.845,15.234,12.393,23.925,16.805c-9.394,4.441-18.899,8.66-28.255,13.182
		C859.61,836.522,844.289,826.847,841.524,820.168z M817.395,866.487c-1.519,1.256-17.228,10.875-32.316,26.007
		c-3.028-2.364-17.933-17.776-24.616-39.215c9.514-5.346,19.467-9.864,29.548-14.023C801.341,856.258,811.3,861.754,817.395,866.487
		z M778.722,899.187c-9.347,10.584-17.218,22.436-23.404,35.128c-13.138-34.966-18.306-58.119-18.583-60.576
		c2.351-5.26,10.496-12.131,15.828-15.418C760.684,881.281,774.146,894.197,778.722,899.187z M904.284,821.542
		c-6.199-2.708-20.06-8.962-24.833-14.718c21.937-8.03,37.064-14.296,37.064-14.296c4.245,6.698,10.841,11.331,17.427,15.495
		C932.943,808.615,905.953,822.59,904.284,821.542z M924.847,788.701c32.837-15.801,33.004-18.697,39.492-22.487
		c4.096-4.143,4.087-2.486,14.151-13.754c-5.967,15.444-35.258,49.146-36.258,49.855
		C936.538,799.074,928.703,794.442,924.847,788.701z M972.966,744.073c-16.27,30.956-130.96,66.232-131.962,66.433
		c-1.123,0.764-9.5,3.617-10.866,3.857c-10.214,4.902-71.036,21.818-95.904,47.329c-3.723-20.601-5.186-39.631-6.13-59.821
		c5.315-0.383,41.228-1.075,77.504-9.859c2.073-0.465,4.091-1.22,6.224-1.421c8.919-3.385,33.052-7.289,62.201-31.199
		c52.651-36.164,46.407-69.42,77.551-64.74C975.384,697.811,988.155,728.586,972.966,744.073z M844.263,768.889
		c-38.181,19.703-98.107,23.834-112.892,23.639c1.655-1.692,20.746-16.288,31.143-24.364c5.784-4.135-0.072-1.192,18.481,0.179
		c51.932,5.936,85.674-22.945,90.307-71.753c-0.034-0.96,0.533-1.719,1.31-2.21c4.628-3.354,34.219-25.093,35.017-25.529
		C897.75,718.737,881.852,749.769,844.263,768.889z M818.112,691.018c6.015-1.096,12.141-1.745,18.259-1.643
		c25.018,18.842,16.531,60.554-17.257,68.669C827.434,736.391,830.736,710.203,818.112,691.018z M815.462,755.258
		c-7.33-10.198-15.103-37.638-1.809-62.866C826.145,708.309,823.085,737.48,815.462,755.258z M812.612,759.196
		c-27.364,2.64-45.23-20.347-44.867-33.515c9.108-15.09,23.665-27.005,40.605-32.154
		C799.479,712.908,799.432,736.718,812.612,759.196z M866.281,686.185c-38.522-10.108-70.586-9.252-96.586,26.028
		c-10.781,14.755-9.953,32.226-11.054,35.815c0.401,3.038,0.158,6.118,0.085,9.172c0.162,1.855-18.555,15.286-19.556,15.815
		c-0.929,1.095-9.471,7.547-10.969,8.502c0.909-19.078,4.492-38.259,12.432-55.721c28.547-63.117,111.233-74.263,162.41-67.09
		C901.591,660.211,867.628,685.675,866.281,686.185z M1018.524,537.375c-5.482,6.685-11.096,13.281-16.664,19.897
		c-0.805-1.651-5.104-12.589-5.175-13.729c2.87-5.757,11.172-20.839,13.195-22.893
		C1018.658,537.267,1018.261,536.41,1018.524,537.375z M1013.601,514.573c11.045-16.053,21.334-26.248,24.198-28.498
		c0.285,2.569,1.519,23.944,1.574,24.945c0.341,1.706-15.629,20.193-16.506,21.194
		C1019.706,526.373,1016.583,520.503,1013.601,514.573z M1027.193,592.729c-6.688,9.765-6.416,10.112-7.773,10.422
		c-1.991,0.572-25.214,7.33-29.654,7.722c0.876-0.682,35.998-18.494,37.086-18.195
		C1026.378,591.723,1028.145,592.192,1027.193,592.729z M1035.346,624.619c-15.365,0.181-45.157-1.931-54.816-5.499
		c1.655-0.615,3.426-0.768,5.154-1.097c37.441-7.131,32.968-11.174,37.082-7.504C1025.18,613.353,1034.195,623.034,1035.346,624.619
		z M973.414,604.491c9.04-13.247,18.895-25.926,29.04-38.34c9.202,4.053,18.447,8.025,27.573,12.248
		C1014.804,589.488,991.381,599.11,973.414,604.491z M997.07,561.974c0.35,0.627,0.004,1.271-0.41,1.762
		c-4.984,6.087-17.873,22.538-17.922,22.589c0.05-0.159,4.958-11.662,8.912-24.36c1.583-3.677,3.417-7.244,5.145-10.853
		C994.42,554.645,995.649,558.352,997.07,561.974z M1019.344,638.958c10.495,4.586,20.516,10.188,30.456,15.866
		c0,0.001,0.252,14.927,0.252,14.927c-1.945-1.753-3.929-3.511-5.499-5.614C1043.723,663.49,1019.559,639.211,1019.344,638.958z
		 M1023.601,633.996c1.001,0.031,25.975,1.544,43.635,3.887c-4.834,3.852-9.697,7.67-14.565,11.476
		C1052.667,649.357,1023.601,633.996,1023.601,633.996z M1043.384,624.291c-1.433-1.489-13.904-15.251-15.529-17.257
		c10.448-3.11,20.973-6.045,31.651-8.264c0.73,1,15.706,21.573,16.796,23.46C1062.151,623.854,1045.513,624.83,1043.384,624.291z
		 M1035.666,574.214c-9.731-4.258-19.458-8.528-29.134-12.901c0.797-1.005,16.473-20.765,18.008-20.345
		c0.299,0.026,35.503,3.136,35.503,3.136C1058.127,549.075,1050.574,562.544,1035.666,574.214z M1062.611,538.241
		c-11.429-0.875-22.837-2.009-34.253-2.995c17.271-21.693,15.406-19.464,18.003-19.944c7.457-1.306,14.889-2.782,22.355-4.04
		C1067.808,520.451,1065.888,529.59,1062.611,538.241z M1043.687,481.177c0.885-1.771,17.918-13.267,26.595-15.951
		c-5.781,12.268-17.102,29.025-25.209,39.467C1045.015,503.691,1043.669,483.697,1043.687,481.177z M1069.348,504.982
		c-6.48,1.143-12.931,2.491-19.433,3.486c0,0,9.052-12.322,14.944-21.54c1.13-1.648,5.437-9.033,6.434-10.478
		c-0.623,4.445-0.312,8.98-1.092,13.4C1070.5,491.643,1069.662,502.397,1069.348,504.982z M1066.634,72.173
		c7.671,5.591,49.026,83.606,10.226,175.438c-14.061,33.405-27.625,45.439-11.429,43.515c17.103-2.555,29.166-18.224,41.975-26.412
		c-1.669,40.822-23.347,70.123-46.975,100.426c-4.082,5.258,3.894,12.35,25.503,2.048c5.414-2.504,10.776-5.354,16.685-6.523
		c1.161,49.21-26.443,92.867-28.468,93.357c-43.721,14.504-64.401,49.262-79.889,74.548c14.788-42.926,2.542-84.996-2.415-124.36
		c-0.651-7.997-7.581-6.695-8.963-3.127c-6.591,14.698-21.366,24.956-36.399,29.343c12.477-10.672,12.228-11.53,16.395-15.516
		v-0.248c1.711-1.668,3.021-3.694,4.748-5.341c0,0,15.973-19.026,18.614-42.346c0.816-8.38-5.013-7.978-7.078-6.31
		c-22.718,16.434-46.792,26.988-58.396,30.435c40.705-26.18,70.943-56.177,84.381-102.939c1.483-4.898-5.399-8.186-8.225-3.579
		c-27.865,38.207-66.945,53.704-113.553,60.362c100.647-45.391,128.288-113.596,127.951-118.037
		c-0.222-3.376-4.57-5.944-7.845-2.752c-19.212,18.436-46.5,34.715-63.157,42.107c44.02-49.738,25.597-55.306,20.904-49.407
		c-15.345,17.94-50.128,29.766-76.373,37.841c27.064-51.471,134.049-60.36,131.582-128.071c-0.094-1.562,0.034-3.276-0.887-4.629
		c-1.28-2.048-4.33-2.679-6.28-1.25c-3.016,2.36-20.594,26.085-64.56,42.973C977.569,117.637,1038.566,51.938,1066.634,72.173z
		 M941.012,134.877c1.704-2.875,17.947-21.021,20.465-23.072c3.157-4.686,11.238-9.386,12.351-9.778
		c1.855-2.148,22.278-14.329,28.093-16.331c-0.001,0.001-21.787,20.443-21.787,20.444c0,0-17.17,19.043-17.172,19.044
		c-0.527,0.673-11.896,14.851-12.7,15.503c-1.003,1.653-10.104,13.87-11.22,14.881c-0.614,1.36-9.573,13.714-10.985,15.427
		c-2.045,9.934,8.816,5.196,9.816,5.128c1.256-0.719,14.296-5.669,15.324-5.798c0.125-0.085,20.99-10.274,21.399-10.358
		c0.849-0.913,10.206-6.496,11.088-6.864c3.042-2.564,6.485-4.62,9.569-7.142c3.968-2.952,7.508-6.421,11.386-9.479
		c-1.357,10.932-8.457,21.221-11.135,23.438c-1.437,2.2-6.013,7.131-8.456,8.575c-2.504,2.929-13.645,10.932-17.223,12.649
		c-1.352,1.245-8.419,5.535-10.175,6.075c-0.725,1.002-23.827,13.545-25.089,14.1c-0.077,0.098-0.226,0.299-0.303,0.397l-0.26-0.154
		c-3.555,2.485-18.263,10.047-31.169,20.064c-0.892,0.708-1.809,1.386-2.79,1.945c-0.966,1-32.754,28.382-27.385,41.681
		c4.982,3.521,4.315,0.742,22.573-4.3c0.001,0,33.694-12.265,33.694-12.265c0,0,5.654-2.36,23.144-12.014
		c-2.482,4.898-15.069,22.417-35.61,39.142c-1.455,1.212-3.323,2.261-3.835,4.219c-0.845,2.577,1.31,5.525,4.001,5.576
		c5.877-0.077,37.19-16.059,38.759-16.472c1.925-1.377,19.538-10.885,28.323-17.393c2.432-1.574,4.672-3.43,7.159-4.927
		c-1.772,3.702-8.611,13.231-10.269,14.731c-0.761,1.725-9.976,12.847-11.971,14.066c-0.334,1.33-11.157,11.776-12.662,12.653
		c-9.228,11.433-42.735,31.213-48.319,34.573c-27.803,15.425-58.054,25.589-58.054,25.589c-3.901,2.164-2.306,8.799,3.029,8.268
		c49.624-2.441,71.962-11.982,76.233-12.611c2.163-1.109,4.578-1.753,6.885-2.534c22.766-9.156,36.241-19.091,36.241-19.091
		c0,0,14.695-12.149,14.697-12.15c-0.985,2.858-5.777,11.517-7.376,13.127c-3.241,7.955-25.536,32.961-28.135,33.421
		c-2.335,5.665-44.413,34.123-62.713,40.81c-0.525,0.431-1.084,0.815-1.608,1.233c-8.984,20.773,56.154-6.826,57.154-6.783
		c0.589-0.93,1.737-1.169,2.658-1.66c14.034-6.679,28.886-16.075,28.886-16.075c-7.454,34.387-49.864,59.64-52.513,62.026
		c-1.252,4.949,1.205,5.224,2.308,6.66c5.934,0.296,19.044-2.3,19.044-2.3c2.412-1.311,14.809-3.418,27.769-12.888
		c0.794-0.563,1.519-1.288,2.462-1.625c1.749-2.001,3.968-3.528,5.747-5.516c1.412-1.433,2.641-3.033,4.049-4.471
		c3.323,18.07,12.028,71.293,6.259,88.831c-4.13-16.265-9.753-23.803-10.99-26.941c-0.977-1.037-1.625-2.312-2.402-3.481
		c-3.635-5.69-12.863-16.57-12.863-16.57c-2.274-1.361-3.63-3.801-5.823-5.26c-1.849-1.127-6.854-1.459-6.724,5.452
		c1.059,3.146,9.177,34.917-3.093,60.418c0-0.001-4.799-22.307-4.8-22.308c-0.516-0.999-0.832-2.091-0.909-3.2
		c-1.122-2.355-1.689-4.919-2.577-7.359c-9.104-25.138-21.533-33.214-23.797-35.951c-1.169-0.563-2.18-1.399-3.063-2.321
		c-2.752-1.427-7.847-5.474-17.338-8.758c-4.302-1.601-7.877,3.393-5.192,6.881c12.547,18.617,14.975,38.705,11.911,50.234
		c-1.327-1.371-8.193-12.497-19.279-20.704c-0.717-0.546-1.515-1.003-2.078-1.698c-5.563-3.55-11.493-6.608-17.888-8.345
		c4.582-27.998-6.349-41.817-8.639-46.749c-2.061-2.334-3.724-5.013-5.926-7.231c-1.698-1.979-3.814-3.537-5.516-5.495
		c-2.884-1.816-19.705-17.12-50.84-16.48c33.725-80.556,90.86-177.341,94.291-180.285c3.249-6.009,23.092-35.154,24.787-36.646
		c0.643-1.261,4.013-6.187,5.09-6.843C918.139,162.826,937.856,137.765,941.012,134.877z M792.42,278.034
		c0.351-0.389,25.165-27.079,25.644-27.304c0.8-1.419,15.604-17.548,16.992-18.733c0.862-1.489,2.107-2.76,3.498-3.771
		c1.261-1.873,8.2-9.457,9.381-10.256c1.493-2.048,10.218-11.667,11.945-12.803c0.884-1.504,4.948-5.997,6.408-6.804
		c1.25-1.958,2.807-3.763,4.731-5.09c1.83-2.521,4.074-4.752,6.421-6.796c1.015-1.676,12.55-13.141,13.562-13.78
		c0.988-1.367,6.594-7.062,8.157-8.012c0.682-1.06,18.175-18.749,23.05-21.77c-0.712,1.603-6.591,9.65-7.833,10.094
		c-1.001,0.949-11.18,16.534-13.067,18.063c-0.614,1.286-4.682,7.291-5.998,8.532c-0.544,1.357-4.972,8.047-6.101,8.917
		c-0.423,1.23-6.555,10.612-7.713,11.855c-0.981,2.027-2.137,4.006-3.656,5.678c-0.842,1.827-7.057,11.966-8.17,13.182
		c-1.229,2.739-2.82,5.354-4.659,7.722c-0.514,1.452-3.453,6.512-4.693,7.696c-0.215,1.196-5.073,9.616-6.088,10.61
		c0,0-28.278,49.709-60.371,119.551c-1.621,3.293-2.799,6.83-4.787,9.927c-2.444-8.702-2.351-29.79-30.072-63.362
		C760.389,309.941,774.791,296.853,792.42,278.034z M757.817,344.979c1.319-4.52,2.722-5.743,4.514-14.369
		c2.171,3.115,4.484,6.241,5.823,9.821c1.677,1.637,6.548,13.178,7.265,16.583c4.439,6.557,5.567,32.319,5.666,33.319
		c-2.207,0.627-24.799,3.294-45.853,21.617c-1.408,1.109-2.568,2.521-4.091,3.469c-0.653,0.934-1.446,1.753-2.261,2.542
		c-0.482,1.417-1.596,2.453-2.931,3.067c-1.975,2.107-3.673,4.454-5.648,6.562c0.09-10.047,6.073-25.827,8.212-29.121l-0.179-0.209
		c0.001-0.002,9.586-18.315,9.586-18.315l0.328-0.008c0.388-1.063,0.887-2.104,1.672-2.935c0.771-1.605,5.568-10.09,7.112-11.634
		c0.661-2.125,1.898-4.044,3.234-5.802c0.769-1.889,4.094-7.789,4.663-8.524C755.731,348.95,756.623,346.873,757.817,344.979z
		 M715.266,307.773c2.396,1.289,8.757,8.031,8.972,13.451l0.273,0.166c0.365,12.174-9.708,20.932-24.723,39.496
		c-0.175,0.098-0.516,0.299-0.691,0.397l0.128,0.358c-0.167,0.094-0.503,0.273-0.67,0.363c-0.435,1.241-1.429,2.265-2.372,3.166
		c-1.964,3.302-15.079,18.258-21.621,39.612c-1.169-1.421-2.197-2.965-2.961-4.637c-0.367-0.341-0.589-0.789-0.721-1.246
		c-13.866-18.296-34.411-101.531,37.547-74.688c1.647,0.025,3.191-0.602,4.441-1.668c0.597-1.506,0.798-3.127,0.67-4.735
		c0-0.001-2.534-9.406-2.534-9.407c-1.156-2.065-2.112-4.232-3.033-6.404C710.608,303.614,713.244,305.397,715.266,307.773z
		 M556.167,302.031c-6.808,14.992-2.815,7.522-5.619,15.499c0.017,1.869,0.051,3.776,0.926,5.482
		c1.378,0.584,2.756,1.241,4.296,1.241c70.145-26.436,54.25,55.492,33.784,80.58c-4.373-14.482-10.966-24.434-19.108-36.314
		l-0.226,0.06c-0.823-1.297-1.89-2.419-2.607-3.771c-0.65-0.562-12.549-14.697-13.123-15.862c-1.952-1.641-5.691-6.495-6.028-7.265
		c-1.798-1.776-6.068-8.064-6.719-10.503C533.997,320.41,545.329,309.427,556.167,302.031z M542.882,300.342
		c-2.449,2.786-5.38,5.162-7.351,8.353c-11.804,15.759,0.872,30.743,2.282,34.274c0.933,1,26.569,31.87,28.157,35.363
		c2.808,3.153,9.042,13.825,10.26,17.5c2.678,3.517,6.375,17.757,7.112,20.618c0.764,3.183,5.346,4.049,7.406,1.634
		c9.899-11.159,14.785-23.323,16.126-25.252c0.709-2.957,4.957-11.373,7.252-23.485c0.55-2.496,0.713-5.064,1.391-7.525
		c0-5.469,0.695-10.96,0.064-16.421c-0.158-1.173-0.2-2.359-0.098-3.532c-0.904-1.903-0.892-4.044-1.48-6.028
		c-3.116-11.04-5.427-11.638-6.642-14.633c-3.041-2.279-8.726-11.519-26.924-11.933c-12.381,0.621-13.833,2.348-18.699,2.918
		c5.115-20.602,40.497-30.232,59.893-8.294c3.259,3.298,5.303,7.509,7.884,11.314c1.668,0.341,3.426,0.388,5.102,0.009
		c2.287-3.289,4.019-6.958,6.711-9.953c13.791-17.416,41.883-18.309,55.256-2.957c2.509,2.88,4.851,6.101,5.849,9.846
		c-3.261-0.384-34.089-10.722-47.363,11.979c-1.045,1.689-1.792,3.55-2.918,5.192c-9.601,34.362,2.768,54.569,4.232,61.369
		c1.348,2.3,2.231,4.838,3.507,7.18c2.3,4.317,6.971,12.046,7.15,12.534c3.677,2.981,7.165,13.753,13.729,6.792
		c3.828-21.042,16.902-38.948,18.652-40.589c1.34-2.706,9.79-13.268,12.065-15.209c0.818-1.389,11.926-14.836,13.067-15.968
		c4.046-8.947,20.142-21.326-3.336-45.072c3.886,0.806,7.649,2.129,11.365,3.515c21.82,8.06,24.767,19.185,16.557,37.918
		c-1.088,1.941-1.557,4.296-3.204,5.87c-0.563,2.451-9.971,18.279-11.02,19.211c-0.164,0.554-10.529,18.883-11.126,19.599
		c-0.006,0.02-7.518,16.847-7.683,17.09c-0.72,4.418-2.336,3.537-5.235,24.403c1.508,9.868-1.63,19.337,8.208,17.355
		c3.328-4.906,6.523-9.91,10.269-14.522c46.774-56.823,130.453-32.74,126.493,24.39c-1.016-0.746-28.573-39.695-69.953-24.189
		c-24.238,8.437-35.253,29.184-37.385,31.007c-1.926,5.399-12.652,16.234-18.029,54.479c-1.226,12.773-5.069,24.26,10.96,17.739
		c1.664-0.674,3.165-1.715,4.88-2.287c1.203-1.433,2.901-2.287,4.309-3.486c10.186-8.567,17.039-19.86,19.757-22.406
		c1.525,10.181-0.891,29.771-2.201,32.354c-0.189,2.933-2.149,9.743-2.969,11.122c0.017,2.462-6.439,18.314-8.763,20.998
		c-0.279,3.426-17.355,27.665-22.048,30.529c-1.574,3.069-14.951,14.42-18.204,17.107c-2.261,1.549-2.385,5.226-0.269,6.954
		c1.109,1.212,2.871,0.87,4.347,1.037c12.581-3.313,15.398-1.844,39.795-15.217c-3.42,8.462-19.226,33.553-24.821,37.918
		c-7.756,11.729-35.74,30.584-37.641,32.227c-10.249,8.603-17.159,22.419-18.605,24.471c-3.359,9.559-30.097,48.526-29.718,176.207
		c0.746,57.785,16.662,102.612,16.907,103.681c-32.895-6.751-51.942-3.232-68.212-0.324c3.527-12.931,12.499-31.167,16.787-99.931
		c2.09-60.788-5.928-174.771-55.887-209.683c-30.786-21.23-48.101-49.615-50.473-56.51c-2.005-2.432-3.046-5.473-4.59-8.191
		c7.891,4.483,13.123,7.342,13.123,7.342c3.142,0.848,7.849,3.887,21.651,6.916c8.991,1.765,8.606,1.3,11.062-1.719
		c-0.572-6.723,2.61-0.164-16.613-18.409c-1.395-1.57-3.157-2.846-4.215-4.68c-12.773-10.289-34.149-49.855-33.66-66.1
		c-0.918-1.76-2.607-14.612-1.579-28.276c2.967,2.873,11.555,16.874,23.037,25.017c0.401,0.324,0.785,0.683,1.182,1.054
		c1.376,0.468,7.949,4.423,13.187,4.006c5.767-0.416,3.431-8.072,3.614-11.173c-0.525-2.278-0.337-4.637-0.772-6.924
		c-2.426-18.597-7.107-32.385-7.107-32.385c-1.472-2.944-2.372-6.139-3.788-9.113c-14.795-33.944-37.668-41.734-39.257-43.438
		c-2.944-0.704-5.627-2.193-8.562-2.935c-40.534-12.256-65.323,24.061-66.813,25.213c-3.819-58.756,82.248-80.158,126.454-24.352
		c2.009,2.465,7.682,9.897,9.031,13.191c1.583,1.217,3.03,2.738,6.822,0.887c3.295-6.592,2.212-15.843,2.62-18.191
		c-0.661-2.121-0.691-4.356-1.037-6.532c-2.841-16.688-8.972-26.262-9.735-29.449c0,0-17.336-30.785-17.338-30.789
		c-1.226-1.145-6.719-10.779-7.816-13.972c-1.845-1.725-4.771-10.26-5.781-13.882C507.366,313.338,522.991,305.302,542.882,300.342z
		 M522.409,374.194c1.578,1.625,2.645,3.784,3.46,5.896c1.23,1.025,6.593,11.145,7.709,14.019
		c1.171,1.491,10.092,20.128,10.141,33.383c-1.971-2.466-4.057-4.829-6.058-7.261c-0.644-0.431-1.216-0.981-1.536-1.685
		c-1.075-0.717-2.014-1.625-2.688-2.722c-2.065-1.387-3.686-3.332-5.666-4.834c-2.914-2.577-6.246-4.612-9.275-7.026
		c-0.301-0.127-8.69-4.839-8.733-4.864c-0.003-0.001-9.68-4.351-9.68-4.352c-0.563-0.119-1.084-0.307-1.57-0.567
		c-5.865-1.25-1.398-0.918-15.414-3.818c0.188-2.406-0.192-4.962,0.508-7.265c-0.134-1.551,0.216-7.01,0.968-8.038
		c-0.299-4.449,4.193-20.069,5.947-23.05c0.41-1.888,3.003-8.007,4.151-9.04c0.97-3.29,5.455-10.315,7.159-12.039
		c2.008,6.492,0.939,5.41,4.07,12.641C511.374,355.435,522.409,374.194,522.409,374.194z M370.123,169.728
		c1.496,1.171,12.232,11.674,13.626,13.72c1.074,0.687,11.319,11.314,11.92,12.491c0.515,0.237,19.451,20.089,20.938,22.487
		c1,0.707,5.681,5.556,6.493,7.172c1.079,0.727,9.055,9.209,10.636,11.566c1,0.693,11.116,11.601,12.116,13.485l0.269-0.081
		c0.94,1.001,20.221,21.668,21.301,23.2c0,0,19.951,20.689,26.224,26.702c3.724,3.72,7.688,7.197,11.412,10.909
		c-3.358,4.547-22.325,24.24-28.81,56.992c-0.499,2.172-0.555,4.441-1.297,6.557c-17.181-37.054-33.609-71.113-33.609-71.113
		c-1.274-1.575-5.604-10.063-5.853-11.199c-0.965-1.4-6.839-12.388-7.782-14.915c-0.889-0.856-12.58-22.755-12.816-23.417
		c-1.081-1.236-4.574-7.593-5.043-9.006c-1.334-1.408-4.604-7.389-5.154-8.959c-1.082-1.097-9.048-14.683-9.42-15.764
		c-1.354-1.44-5.562-8.473-6.352-10.303c-1.409-1.369-4.943-7.243-5.606-8.891c-1.256-1.309-7.379-10.648-8.089-12.364
		c-1.383-1.172-9.002-12.906-9.714-14.198c-1.242-1.251-17.565-23.769-18.076-25.947
		C350.806,150.367,368.103,167.01,370.123,169.728z M284.859,98.495c2.362,1.104,13.762,8.504,14.859,10.312
		c6.558,4.802,44.634,50.886,48.707,58.327c1.072,1.105,9.268,12.332,10.627,14.996c2.51,2.757,17.383,25.336,18.387,27.675
		c17.79,17.936,81.919,151.742,83.668,156.991c0.678,0.964,1.182,2.065,1.485,3.212c1.363,2.326,7.924,17.047,8.831,19.394
		c-32.947-0.808-63.671,17.383-70.516,48.724c-0.222,1.037-0.452,2.082-0.862,3.072c0,0-1.658,10.651,0.439,24.104
		c-3.413,0.922-6.608,2.445-9.936,3.584c-0.614,0.503-1.297,0.99-2.086,1.139c-13.594,8.416-12.955,10.073-16.647,12.679
		c0,0.001-8.177,9.828-8.178,9.829c-0.666,1.305-1.523,2.5-2.47,3.614c-0.986-5.367-1.28-10.926-0.657-16.344
		c-0.627-0.393-0.623-1.945,0.239-1.92c0.608-21.727,20.786-36.386,10.055-39.134c-3.454-0.978-16.494,5.608-24.347,12.334
		c-2.818,2.432-6.826,6.48-6.826,6.48c-20.373,28.5-20.199,45.735-22.389,51.31c-0.328,3.332-1.045,6.621-1.753,9.893
		c-1.489-2.871-2.892-5.892-3.366-9.108c-2.694-3.736-4.903-30.295-1.856-40.307c-0.525-4.946,5.946-16.793-2.052-17.061
		c-6.993-0.658-25.515,29.563-26.356,30.563c-0.009,0.029-4.402,8.834-7.227,18.089c-0.354,1.523-0.704,3.055-1.203,4.539
		c-1.294-5.632-1.644-20.385-1.105-23.643c-2.217-9.154,6.987-62.335,7.427-65.524c15.613,18.321,34.152,24.489,57.436,27.137
		c6.289-2.032,4.583-7.075,2.299-8.451c-33.149-21.142-48.236-46.102-50.896-60.58c16.014,8.494,26.44,19.933,76.638,31.455
		c3.322-0.395,8.222,2.43,12.41-1.318c0.439-1.032,0.674-2.137,0.712-3.26c-0.303-1.02-0.849-1.945-1.459-2.799
		c-57.518-26.596-90.225-63.364-99.419-88.169c3.234,2.319,17.593,17.575,45.785,29.151c0.806,0.375,1.775,0.546,2.402,1.237
		c4.733,0.713,27.789,13.15,86.284,16.088c5.017,0.548,7.002-7.107,1.395-8.848c-42.697-14.753-71.664-33.249-74.906-36.135
		c-0.439-0.175-0.9-0.345-1.177-0.729c-11.306-6.13-39.454-30.785-42.88-36.382c-4.936-4.582-18.242-21.946-21.207-27.875
		c2.73,1.724,5.448,3.549,7.884,5.678c2.675,1.28,4.949,3.242,7.513,4.727c8.142,5.159,24.821,14.492,24.821,14.492l0.282-0.252
		l0.427,0.136l0.124,0.371c0.747,0.246,12.017,5.595,13.02,6.225c13.677,5.136,22.949,11.291,24.36,4.049
		c0.452-1.792-0.375-3.656-1.834-4.723c-21.803-17.295-34.783-35.304-37.752-40.853c26.363,15.839,73.94,30.272,77.316,30.188
		c5.762-4.182,1.365-7.559,0.384-12.172c-1.527-2.252-2.534-4.816-4.023-7.094c-10.71-17.542-27.593-28.079-29.77-30.017
		c-24.884-16.415-68.744-38.523-70.042-42.24c-4.996-1.948-19.577-16.481-20.085-19.198c-3.807-3.807-7.777-14.11-8.353-19.774
		c1.694,1.327,3.383,2.701,4.774,4.36c0.643,0.442,10.908,8.512,11.45,9.087c0.607,0.287,12.39,7.925,12.914,8.353
		c0,0,11.301,6.365,24.066,11.736c1.792,0.755,3.656,1.365,5.358,2.325c4.667,0.854,20.487,10.163,20.328,0.849
		c0.51-6.342-47.536-61.648-48.135-62.649c-1.311-0.945-7.819-7.584-8.383-8.575c-0.406-0.239-17.589-16.113-17.671-16.212
		C266.432,87.178,282.413,96.189,284.859,98.495z M161.429,360.602c9.748,1.803,32.977,16.742,41.182,10.64
		c7.876-5.517-10.099-12.365-30.051-50.896c-8.929-17.235-15.115-36.199-15.909-55.695c13.003,8.236,26.236,25.484,44.531,26.668
		c2.403,0.314,6.916-1.931,3.524-8.234c-20.116-36.63-34.682-72.335-34.411-114.214c0.065-43.845,19.319-89.871,25.49-95.426
		c7.251-7.072,21.659-4.181,31.625-1.173c37.83,22.022,66.511,56.084,92.039,91.395c-15.58-6.028-30.55-13.844-43.878-23.959
		c-18.349-13.978-18.917-19.731-23.11-19.808c-9.227-0.587-3.957,23.859,0.708,33.217c21.771,44.614,102.511,57.399,126.062,101.527
		c-29.555-9.686-60.693-19.638-76.309-37.773c-3.655-4.305-17.396-3.695,3.05,27.252c8.022,12.05,16.016,19.773,17.824,22.12
		c-14.804-6.709-41.577-21.832-61.817-40.857c-21.061-20.523-3.949,61.483,118.118,119.261
		c-38.738-2.479-84.819-22.332-111.791-58.592c-18.478-24.639-10.819,51.492,71.659,102.828c1.135,0.721,2.325,1.369,3.387,2.206
		c-20.236-6.607-41.5-18.208-58.37-30.435c-12.418-9.565-12.108,32.7,32.666,69.748c-20.747-6.286-29.209-16.763-36.868-30.119
		c-1.416-2.291-4.923-2.7-6.834-0.811c-1,0.876-20.364,84.718-4.083,129.057c-0.001-0.002-13.737-22.227-13.737-22.227
		c-3.122-2.487-22.723-37.722-66.164-52.346C188.044,453.557,160.323,410.409,161.429,360.602z M220.49,481.177
		c-0.363,7.824-0.875,15.648-1.416,23.468c-4.001-4.764-19.083-26.136-25.2-39.449C203.487,468.54,218.136,478.31,220.49,481.177z
		 M192.811,476.471c0,0,7.134,12.243,16.463,25.171c1.574,2.312,3.447,4.411,4.88,6.817c-6.527-1.028-13.029-2.265-19.509-3.575
		C194.646,504.884,192.88,477.205,192.811,476.471z M195.427,511.305c27.079,4.519,24.657,3.898,26.984,7.79
		c1.143,0.964,12.621,15.184,13.405,16.186c-2.043,0.187-33.142,2.966-34.215,3.076C198.246,529.705,196.344,520.52,195.427,511.305
		z M204.125,544.12c42.943-3.162,33.16-7.231,46.177,8.259c1.566,1.988,3.413,3.776,4.736,5.956
		c1.041,0.815,1.809,1.907,2.577,2.978c-9.693,4.352-19.411,8.652-29.151,12.893C216,564.413,207.417,552.307,204.125,544.12z
		 M225.717,587.188c1.345,1.334,8.09,11.557,8.861,12.969c-32.842-8.728-29.017-6.695-30.845-8.912
		c-4.305-5.124-8.839-10.06-13.025-15.273C195.818,576.313,211.036,580.709,225.717,587.188z M181.25,574.479
		c1.295,1.295,13.635,15.692,14.121,16.395c-3.919-0.369-12.571-1.833-20.179-2.005c-16.11-0.534-11.434,1.235-14.723-1.305
		c-3.443-3.319-7.248-6.271-10.516-9.765C164.309,572.914,178.537,573.815,181.25,574.479z M143.571,580.426
		c3.456,3.076,6.877,6.195,10.252,9.365c-20.46,2.55-33.325,9.436-37.244,10.921C119.392,597.15,130.723,586.22,143.571,580.426z
		 M114.83,608.642c3.772-2.522,20.608-10.762,39.074-12.833c-4.032,6.079-8.353,11.971-12.491,17.978
		C140.752,615.239,115.836,608.898,114.83,608.642z M180.947,621.39c-19.667-2.575-28.205-4.578-33.507-5.499
		c4.543-6.885,9.433-13.545,14.078-20.363l0.371-0.013l-0.064-0.529c12.159-0.892,24.369,0.35,36.344,2.453
		C192.479,605.46,186.698,613.416,180.947,621.39z M157.419,647.742c4.635-1.974,28.772-10.404,32.726-7.513
		c5.226,4.189,10.546,8.264,15.781,12.449c-0.489,0.307-18.349,11.253-18.865,11.519c-1.677-0.553-27.123-14.513-29.718-15.93
		C157.364,648.134,157.402,647.874,157.419,647.742z M121.109,683.356c7.837,2.338,15.584,4.975,23.379,7.457
		c-9.394,5.819-19.164,11.041-29.066,15.934C116.22,698.74,118.162,690.843,121.109,683.356z M125.184,708.719
		c0,0,23.77-13.4,23.771-13.4c0.004,3.985-0.017,7.974,0.009,11.962C148.963,707.281,139.862,708.955,125.184,708.719z
		 M123.857,677.754c8.165-16.69,24.39-25.928,26.519-26.344c4.433,2.246,28.822,15.583,30.606,16.634
		c-6.031,4.081-26.532,16.996-29.313,18.515C149.52,686.09,126.433,678.616,123.857,677.754z M155.043,706.116
		c-0.037-1.44-0.5-14.435,0.67-14.893c4.982-3.045,28.348-17.874,29.019-18.161c0.734,6.557,1.591,13.097,2.351,19.654
		C183.931,694.474,172.867,702.509,155.043,706.116z M144.791,903.176c-1.463-1.847-2.585-3.95-3.498-6.109
		c7.482,1.221,26.834,3.843,33.447-0.196c5.558-8.925-7.038-7.835-17.5-17.538c-2.251-1.125-20.052-13.64-30.243-37.069
		c1.001,0.007,33.393,0.116,36.233-0.209c3.73-3.093,2.335-4.362,2.27-6.681c-2.095-2.163-5.183-2.432-7.82-3.571
		c-4.13-1.643-8.153-3.724-11.617-6.531l-0.184,0.068l-0.034-0.26c-7.317-4.757-18.563-16.929-28.195-38.835
		c17.951,2.181,24.84-1.833,28.485-2.718c4.851-2.964,9.483-4.465,15.947-14.599l0.32-0.102c1.054-2.841,2.777-5.38,3.827-8.225
		c10.776-25.915,9.797-53.005,35.303-67.047c0.735-0.839,9.328-8.265,10.281-8.852c1.284-1.61,9.898-9.754,10.9-10.636
		c0.273,1.131,0.614,2.248,1.079,3.328c4.99,3.594,6.836-0.849,11.024-1.638c1.842-1.568,16.991-8.687,29.65-7.176
		c-0.264,0.199-15.029,9.519-15.503,9.744c-2.875,2.662-6.233,4.774-9.155,7.402c-2.54,2.146-10.604,10.03-10.687,10.085
		c-0.241,0.576-7.453,9.787-7.897,10.226c-0.317,1.002-15.45,26.836-11.421,32.303c1.186,1.835,3.75,2.568,5.725,1.613
		c1.63-0.713,2.244-2.534,3.498-3.673c1.922-3.684,13.579-18.719,31.813-20.93c-0.223,0.414-9.43,16.133-9.932,16.707
		c-0.12,0.614-0.418,1.186-0.853,1.647c-4.424,11.188-43.048,73.175,1.988,130.661c1.915,2.61,6.806,9.63,9.957,9.607
		c13.664,1.461-11.106-24.483,12.547-50.635c4.694,16.41,14.711,48.484,0.653,61.071c-0.171,0.341-0.422,0.606-0.76,0.798
		c-5.029,6.742-20.131,9.68-28.729,10.576c-1.997,0.068-3.848,1.531-4.211,3.524c-0.371,1.506,0.435,2.931,0.712,4.386
		c2.456,2.707,6.337,20.03,37.372,17.765c0.294-0.721,1.446,0.218,0.738,0.614c-6.938,15.731-32.076,20.511-51.459-11.463
		c-1.59-2.481-2.526-6.124-8.357-3.686c-0.098,0.107-0.299,0.324-0.397,0.435c-2.102,4.386-4.45,31.714,10.354,53.664
		c0.917,1.51,2.346,2.743,2.867,4.48c0.828,0.158,1.263,0.947,1.822,1.51c4.483,5.242,8.987,7.681,11.079,9.471
		C200.574,969.11,155.814,930.052,144.791,903.176z M253.498,1215.44c2.248,2.342,4.386,4.808,6.463,7.317
		c-7.47,1.177-14.983,2.099-22.496,2.952c-1.8-2.056-3.673-4.049-5.367-6.186C237.801,1218.012,251.608,1215.267,253.498,1215.44z
		 M225.431,1221.242c1.549,1.724,3.157,3.4,4.561,5.256c-3.967,0.613-20.264,1.996-25.055,1.937
		C205.461,1226.713,223.132,1221.807,225.431,1221.242z M222.018,1246.417c-11.073-3.025-21.762-9.531-24.036-11.451
		c14.767-1.098-2.471,0.73,34.727-2.53C232.201,1233.125,222.739,1245.956,222.018,1246.417z M228.545,1248.115
		c3.998-5.593,8.234-11.015,12.3-16.557c0.873-0.39,19.94-2.728,20.892-2.82c-3.204,7.001-6.916,13.767-10.294,20.687
		C243.792,1250.034,236.075,1249.561,228.545,1248.115z M260.49,1214.164c3.392-0.516,14.248-1.7,20.926-2.069
		c1.492-0.312,8.832,5.112,9.833,5.909c-0.047,0.124-0.145,0.371-0.192,0.491C262.703,1222.002,269.404,1224.706,260.49,1214.164z
		 M258.617,1248.618c0.661-1.697,10.062-20.06,10.567-21.062c3.481-0.409,21.27-3.051,26.088-3.562
		c-0.651,2.226-4.911,14.431-5.589,16.276C279.943,1243.865,269.631,1247.2,258.617,1248.618z M375.532,1258.409
		c-0.319,18.036,6.979,31.019,32.099,34.799c1.677,0.209,3.66,0.508,5.034-0.742c7.154-5.532-11.464-13.168-4.795-28.656
		c8.25-19.955,58.747-39.498,62.679-40.461c-1,0.866-57.588,42.044-51.77,60.716c0.969,0.84,2.142,1.399,3.387,1.736
		c4.635-0.732,23.884-15.201,35.042-16.361c-7.333,15.337-17.677,28.432-20.985,30.913c-1.894,2.573-4.467,4.565-6.8,6.732
		c-23.333,18.782-37.35,16.5-44.462,19.578c-0.094,0.115-0.286,0.337-0.384,0.448c-1.968,6.47,1.382,30.191,38.259,31.583
		c-1.114,3.327-5.123,11.051-7.436,13.383c-1.772,3.278-7.947,9.926-10.196,11.339c-12.515,14.77-56.277,26.142-56.975-12.773
		c-0.529-18.808,6.212-20.398,1.805-27.321c-0.179-0.115-0.542-0.345-0.725-0.461c-2.962-0.25-3.168-1.458-15.452,8.549
		c5.9-16.13,8.976-33.199,10.051-50.307c2.901,9.727,5.922,19.479,10.401,28.622c1.953,4.006,7.976,2.998,8.481-1.352
		c0.256-2.043-0.009-4.117,0.303-6.143l0.201,0.431l0.064-0.346C362.452,1320.407,363.138,1278.052,375.532,1258.409z
		 M334.543,1306.745c-0.536-1.001-4.65-9.271-4.1-10.367c1.517-4.113,5.091-14.222,5.098-14.236
		C335.895,1289.408,335.191,1299.47,334.543,1306.745z M327.111,1305.303c6.995,14.65,5.903,13.319,5.584,15.879
		c-1.536,9.138-3.823,18.166-7.073,26.851c-3.392-5.512-6.643-11.118-10-16.651C319.65,1322.773,323.438,1314.057,327.111,1305.303z
		 M310.221,1328.677c-7.73,0.977-15.465,1.924-23.212,2.739c4.194-9.01,9.061-17.705,14.514-26.007
		c6.792-1.195,13.541-2.603,20.345-3.712C318.515,1310.904,314.304,1319.778,310.221,1328.677z M323.681,1295.167
		c-0.231,0.037-17.486,3.228-17.581,3.246c1.63-2.457,3.136-5.043,5.145-7.21c0.697-1.833,19.818-27.594,20.819-28.554
		c0.9-1.502,1.958-2.901,3.072-4.245C335.817,1262.285,325.631,1295.117,323.681,1295.167z M312.179,1273.481
		c2.025-18.631,0.422-15.169,17.103-29.539c-0.089-0.499,0.503-0.964,0.947-0.712c0.26,0.465-0.256,1.143-0.764,1.182
		C330.187,1246.192,316.97,1268.383,312.179,1273.481z M294.138,1250.61c11.894-5.913,35.016-16.21,37.133-16.911
		C308.091,1256.016,312.289,1252.371,294.138,1250.61z M298.383,1236.574c0.038,1.173-1.89,0.371-0.815-0.256
		c1.327-4.437,3.025-8.754,4.432-13.166c10.051-1.331,20.136-2.513,30.26-3.076C321.272,1226.354,299.93,1236.795,298.383,1236.574z
		 M300.631,1217.108c-2.718-1.706-5.401-3.52-7.884-5.555c0.337-0.013,1.007-0.047,1.344-0.06c1.678-0.617,8.515-0.618,10.008,0.026
		c4.971,0.227,19.63,0.939,24.309,2.709C316.135,1215.354,300.631,1217.108,300.631,1217.108z M277.427,1259.249
		c6.453-4.889,7.718-3.557,26.677-1.591c-2.589,2.459-20.313,16.322-23.208,18.648c-0.768,0.904-1.788,0.085-2.628-0.23
		c-5.602-2.654-11.34-5.021-16.886-7.777C264.706,1266.027,275.306,1260.013,277.427,1259.249z M215.469,1334.488
		c-3.248-13.889,1.366-25.28,9.309-36.211c7.393,1.719,14.701,3.805,22.078,5.606c0,0-15.058,13.37-27.419,26.578
		C218.114,1331.8,217.018,1333.383,215.469,1334.488z M249.355,1325.764c-10.34,4.847-22.759,9.13-24.897,8.912
		c0.35,0.994-1.63,0.619-0.666-0.06c13.285-14.039,24.107-23.695,26.13-25.162C249.918,1310.454,250.01,1316.312,249.355,1325.764z
		 M229.304,1293.153c2.677-3.54,12.039-12.066,25.708-21.028c6.566,2.944,13.157,5.853,19.65,8.963
		c-0.001,0.001-22.252,18.071-22.253,18.072C244.718,1297.112,237.009,1295.141,229.304,1293.153z M255.669,1322.5
		c0.013-6.25,0.444-12.491,0.619-18.737c0,0,11.621-9.583,22.585-18.153c1.771,5.841,3.456,11.719,4.979,17.628
		C281.551,1305.688,268.182,1315.975,255.669,1322.5z M284.04,1281.57c0.673-0.534,22.691-18.186,23.426-18.652
		c-0.081,1-2.189,19.64-3.609,20.981c-4.697,5.222-9.539,10.345-14.868,14.932C287.197,1293.119,285.738,1287.308,284.04,1281.57z
		 M277.418,1360.759c0.009-0.717,0.115-1.425,0.482-2.022c1.02-7.206,3.673-14.07,6.177-20.866
		c7.645-0.981,15.298-1.941,22.965-2.709c-1.647,3.501-9.936,20.468-10.96,22.039c-2.09,1.171-18.958,8.967-19.659,9.224
		C276.663,1364.513,276.855,1362.594,277.418,1360.759z M277.602,1396.326c-1.515-7.526-2.193-15.264-1.647-22.931
		c5.299-2.316,10.435-5.008,15.785-7.201c0,0-7.525,15.95-13.4,30.409C278.626,1397.845,276.732,1397.128,277.602,1396.326z
		 M306.574,1380.465c-8.891,10.385-19.776,18.205-23.204,20.119c4.305-11.86,9.863-23.217,15.269-34.603
		c2.649,4.006,4.983,8.217,7.564,12.274C306.544,1378.912,307.376,1379.782,306.574,1380.465z M311.147,1374.671
		c-3.289-4.923-6.207-10.085-9.322-15.115c3.413-7.12,6.984-14.164,10.435-21.263c0.76,0.03,0.002-0.752,10.435,16.647
		C319.573,1361.902,315.755,1368.583,311.147,1374.671z M315.917,1485.614c3.758,1.079,7.555,2.052,11.284,3.251
		c-16.753,12.519-19.06,18.404-22.47,21.634C305.652,1501.3,309.684,1492.431,315.917,1485.614z M305.968,1521.117
		c0.341,1.02-1.608,0.568-0.653-0.089c6.489-11.348,15.862-21.011,26.822-28.093c1.041,6.135,1.941,12.295,2.952,18.443
		C328.026,1514.343,307.711,1521.41,305.968,1521.117z M320.981,1480.677c3.287-3.168,11.703-8.781,20.751-12.573
		c1.017-0.549,11.748,4.741,12.747,5.265C329.48,1486.048,337.362,1485.992,320.981,1480.677z M340.938,1509.159
		c-4.374-22.754-3.25-19.835-1.685-20.934c2.69-1.555,16.948-9.56,19.974-10.136c0.105,2.612,1.118,17.24,1.293,21.839
		C354.155,1503.331,347.615,1506.407,340.938,1509.159z M350.336,1464.76c2.995-1.463,6.259-2.274,9.403-3.366
		c12.059-3.825,8.952-2.816,13.413-2.043c2.747,0.687,5.576,1.071,8.264,2.005c-6.182,2.79-12.44,5.41-18.609,8.234
		C361.806,1470.228,360.728,1469.761,350.336,1464.76z M370.759,1493.771c-1.318,1.126-2.845,1.971-4.386,2.76
		c-0.115-2.061-0.307-4.117-0.205-6.173c-0.389-1.547-1.019-13.813-1.049-15.183c7.764-3.49,15.567-6.898,23.37-10.29
		c0.439,5.089,0.836,10.188,1.165,15.29C384.746,1484.48,374.251,1492.141,370.759,1493.771z M401.659,1481.812
		c0,0,13.378-14.052,13.379-14.053c-0.32,1.022-4.796,13.518-6.139,13.477C406.492,1481.518,404.073,1481.757,401.659,1481.812z
		 M406.531,1487.555c-3.741,8.66-8.084,17.052-12.188,25.546c-6.608,1.101-13.242,2.031-19.863,3.033
		c6.629-11.648,17.499-24.715,20.222-27.453C398.595,1488.037,402.584,1487.866,406.531,1487.555z M395.345,1474.458
		c-0.405-4.117-0.747-8.247-0.875-12.376c6.287-2.834,20.375-9.915,20.375-9.915c-0.043-0.58,0.751-1.007,1.229-0.742
		c0.252,0.452-0.252,1.148-0.776,1.101C412.566,1457.298,396.346,1473.54,395.345,1474.458z M403.621,1450.806
		c-3.66,2.248-7.73,3.878-11.6,5.776c-1.427,0.93-9.001-1.248-10.013-1.63c7.284-1.854,14.443-4.15,21.915-4.919
		c0.572-0.584,1.506-0.422,2.253-0.533C405.413,1450.085,404.564,1450.575,403.621,1450.806z M371.087,1522.742
		c6.668-0.896,13.293-2.099,19.974-2.922c-11.131,23.431-10,22.078-11.25,22.628c-5.149,2.743-10.171,5.734-15.38,8.366
		C364.201,1541.087,366.872,1531.445,371.087,1522.742z M370.511,1574.244c0.64,0.981-1.404,0.619-0.627-0.175
		c-2.628-5.132-4.202-10.823-5.026-16.523c4.036-2.167,7.974-4.522,12.078-6.544
		C374.282,1558.587,371.565,1566.236,370.511,1574.244z M377.158,1586.795c-4.495-5.593,3.71-29.735,6.689-36.548
		c5.538,7.474,11.118,14.932,16.527,22.504C391.11,1583.473,379.079,1586.948,377.158,1586.795z M404.176,1567.516
		c-3.192-4.066-17.051-23.04-17.5-23.729c1.036-3.162,8.356-18.632,10.2-21.843c5.64,7.709,11.169,15.499,16.758,23.242
		C411.569,1553.015,408.642,1560.72,404.176,1567.516z M420.643,1502.448c-1.25,11.728-2.679,23.455-5.06,35.021
		c-5.316-7.21-10.512-14.509-15.708-21.805c4.066-8.537,8.353-16.971,12.257-25.58C413.036,1491.085,421,1500.732,420.643,1502.448z
		 M421.663,1492.333c-2.287-2.807-4.407-5.742-6.557-8.648c0-0.001,6.962-16.646,6.962-16.647c0.266-1,3.168-9.552,3.806-10.695
		C424.694,1466.839,425.198,1457.918,421.663,1492.333z M431.812,1487.819c0,0,2.825,15.968,6.796,27.666
		c0.171,0.717,0.704,1.583,0.149,2.287c-0.742,1.136-9.163,14.004-10.119,15.175
		C427.633,1521.705,429.929,1499.385,431.812,1487.819z M444.82,1515.221c-5.279-15.403-7.742-31.747-8.097-38.903
		c3.516,7.847,1.06,8.981,19.633,42.5C452.465,1517.759,448.655,1516.441,444.82,1515.221z M463.092,1529.415
		c4.279,7.372,9.027,14.467,13.336,21.822c-1-0.247-16.866-4.275-17.466-5.776c-4.241-7.389-8.238-14.962-11.288-22.922
		C463.838,1527.131,461.281,1526.673,463.092,1529.415z M447.362,1588.732c-14.331-18.884-18.828-44.966-17.325-46.813
		c3.921-5.9,7.777-11.839,11.736-17.709C455.739,1558.087,459.487,1538.91,447.362,1588.732z M452.354,1595.011
		c2.333-12.257,4.778-24.492,7.18-36.732c0.233,0.199,15.141,21.623,15.584,22.709c-1.945,9.855-4.151,19.663-6.173,29.505
		C466.32,1608.867,458.468,1602.14,452.354,1595.011z M506.854,1632.848c-1.896,0.212-20.811-9.719-32.602-18.221
		c0.198-1.001,3.589-17.668,4.189-19.138c0.239-2.645,0.964-5.213,1.493-7.799c1.727,1.698,18.854,26.587,27.555,45.111
		C508.766,1633.629,506.453,1634.064,506.854,1632.848z M511.283,1626.667c-15.848-28.887-23.081-37.318-25.593-41.476
		c1.102,0.209,10.031,2.735,12.978,3.771C504.407,1599.413,510.274,1614.274,511.283,1626.667z M494.708,1581.385
		c-16.335-4.224-14.541-4.099-15.862-5.883c-3.091-4.456-12.416-17.628-14.309-21.224c1,0.228,16.828,4.188,17.504,5.648
		C486.355,1567.021,490.784,1574.06,494.708,1581.385z M626.559,1642.925c-2.828-2.308-5.264-5.06-7.99-7.487
		c-19.128-16.906-72-47.367-72-47.367c-3.235-1.185-30.335-19.051-32.385-21.741c-4.911-1.575-42.621-36.66-46.369-47.12
		c-6.449-6.801-32.494-62.974-30.32-85.469c-2.6-6.507-7.762-2.711-11.041-1.608c-18.008,6.265-17.786,6.015-17.786,6.015
		c-43.258,13.441-75.866-6.378-83.78-25.196c-5.446-6.822-11.718-33.488,15.303-55.047c-2.336,23.681,2.305,28.053,4.778,34.113
		c31.256,34.213,68.14-3.844,69.901-4.65c2.363-3.455,12.921-12.658,18.925-31.873c3.694-12.991-35.197,2.315-39.735-21.775
		c36.253-7.601,56.988-30.676,73.481-64.458c0.951-1.877,0.866-4.446-0.772-5.913c-7.647-7.8-22.868,1.055-32.163,5.375
		c15.296-22.601,71.332-58.85,74.257-60.183c3.348-5.469-1.199-9.185-5.482-7.521c-65.494,24.361-77.785,33.485-77.785,33.485
		c-4.646,3.797-32.425,18.053-27.44,41.561c0.444,1.988,1.224,3.882,1.796,5.845c-16.584-4.568-17.808-20.518-12.146-36.604
		c-0.897-13.064-15.834,0.141-21.851,11.958c-9.57,17.388-10.293,44.246-11.344,47.7c-0.4-1.032-1.088-3.047-1.22-4.147
		c-2-4.803-14.175-50.85-1.958-82.312c0.567-1.485-0.013-3.021-0.482-4.424c-21.006-19.369-61.307-11.608-68.976-13.174
		c-3.31,0.398-27.689,0.24-31.288,0.162c-15.113-0.3-38.174-7.198-43.98-20.2c-1.806-1.796-4.077-6.769-4.684-9.398
		c0.001,0,17.146,5.524,17.146,5.525c1.059,0.088,26.443,4.47,37.069-0.823c0.286-1.485,0.939-3.072,0.196-4.518
		c-1.048-3.145-12.579-6.992-15.503-9.633c-3.122-0.914-23.061-11.982-24.782-13.639c-2.396-0.912-13.01-8.234-14.514-10.23
		c-4.905-3.05-18.625-15.953-17.436-34.94c2.515,1.762,10.329,10.409,27.7,13.605c1.489,0.384,2.965-0.158,4.322-0.747
		c1.143-1.617,1.766-3.609,1.156-5.559c-1.315-1.418-5.547-7.045-6.31-9.066c-3.525-4.59-8.35-15.597-8.498-17.304
		c-1.474-2.065-5.504-16.033-5.119-18.69c-2.306-3.892-4.654-34.834,2.675-53.17c0.609,1.128,9.953,35.269,10.026,37.193
		c0.487,0.614,6.672,20.39,6.771,22.257c0.844,0.755,5.749,14.778,6.088,16.032c1.16,1.847,1.839,3.951,2.517,6.015
		c0,0,6.27,13.133,10.124,19.313c1.216,2.295,2.888,4.33,3.963,6.711c0,0,5.256,7.44,12.939,15.61
		c1.57,1.724,3.575,3.029,4.949,4.936c13.699,9.485,11.793,9.732,16.587,8.878c0.759-0.678,1.468-1.412,2.146-2.167
		c0.26-1.625,0.243-3.345-0.725-4.74c-9.943-16.151-11.053-31.059-9.569-35.908c1.958,2.15,3.908,4.394,5.269,6.984
		c0,0,9.97,11.986,16.182,18.332c1.749,2.095,4.027,3.729,5.542,6.032c1,0.659,23.919,22.766,46.676,34.74
		c5.895,3.323,32.519,17.373,39.113,16.105c6.052-6.174-4.68-11.268,1.062-28.729c0,0,8.547,15.275,18.596,25.533
		c11.941,11.622,20.2,13.85,22.572,15.473c25.339,6.744,43.216,9.334,86.924-17.99c2.523-4.191,0.923-7.159-2.543-8.05
		c-60.244-18.362-65.911-16.578-94.705-16.745c1.143-3.545,5.23-10.585,7.773-12.317c6.993-8.899,20.444-14.315,27.188-15.427
		c5.791-2.801,4.08-7.804,0.883-8.908c-2.649-0.61-5.333,0.341-7.995,0.158c-2.212,1.066-45.592,3.512-43.14,3.959
		c-1-0.012-57.492,2.202-72.329-8.306c1.001-0.063,33.537,1.31,37.154-10.397c1.835-5.683-6.298-5.97-8.17-6.557
		c-1.408,0.279-10.755-1.202-12.521-1.856c-12.576,0-64.272-14.212-73.75-23.054c2.422-0.963,13.972-1.054,26.314-7.265
		c23.061-11.517,7.233-15.14,5.111-16.536c-3.336-0.809-29.224-12.143-31.416-13.793c-3.369-0.809-24.792-12.178-27.415-14.407
		c-2.918-1.276-5.712-2.982-8.119-5.064c-2.139-0.796-31.048-18.472-30.089-38.92c1.527,0.559,2.688,1.715,3.891,2.769
		c16.266,13.331,36.586,19.518,39.471,21.608c1.684,0.392,16.024,5.629,17.508,6.442c0.967,0.074,26.444,8.642,28.75,9.842
		c2.541,0.137,39.194,14.137,43.319,17.85c4.433,1.352,20.711,11.586,23.929,15.324c3.255,2.026,5.802,4.962,8.537,7.611
		c14.156,14.796,12.927,23.948,19.04,21.792c2.304-0.657,3.575-3.234,3.076-5.508c-5.241-33.14,8.328-47.105,41.941-44.496
		c-1.449,3.55-11.853,18.284-10.324,36.416c0.145,3.315,1.182,6.497,1.749,9.752c1.182,2.517,1.928,5.239,3.379,7.641
		c11.018,19.439,14.541,14.98,17.009,14.147c0.307-0.508,0.414-1.25,1.002-1.497c1.966-19.308,8.522-39.073,27.905-40.205
		c-22.456,59.361,8.914,87.528,10.806,90.439c2.063,0.909,9.305,9.12,25.87,11.932c28.516,4.277,88.788,12.57,113.549,33.264
		c-5.699,1.156-37.154,3.261-66.616,20.333c-2.76,1.459-5.162,3.511-7.982,4.842c-1.349,1.41-12.588,8.501-21.13,21.493
		c-1.515,2.112-2.479,4.565-4.053,6.638c-7.421,22.056-8.873,32.401,4.177,61.463c-2.771-0.493-7.861-2.801-9.373-4.373
		c-26.547-12.861-16.738-59.959-37.798-21.604c-1.809,2.957-3.067,6.207-4.791,9.215c-0.616,3.03-33.699,64.776,13.976,143.506
		c0.375,0.636,0.678,1.327,0.964,2.043c2.579,3.344,5.199,8.931,16.284,22.073c1.429,1.826,3.328,3.294,4.42,5.38
		c-22.805-2.503-38.091-21.892-39.095-22.756c-10.268-7.736-9.29,24.051,3.575,46.437c11.768,19.948,29.433,32.842,47.389,44.799
		l0.043,0.265c0.964,0.431,46.422,27.315,57.952,35.132l0.073,0.286C601.182,1580.83,629.726,1615.531,626.559,1642.925z
		 M248.613,1074.088c2.952,3.264,6.89,5.418,10.265,8.195c0.9,0.341,1.758,0.849,2.432,1.566c3.119,1.399,5.994,3.293,9.108,4.719
		c27.464,13.238,59.308,17.18,64.206,18.69c1.327-0.265,2.688,0.281,4.002,0.495c-6.604,2.191-28.527-1.201-35.524-2.466
		c-6.207-0.929-9.177,0.032-7.248,6.873c0.09,0.102,0.264,0.303,0.35,0.401c11.09,5.704,24.677,27.723,115.324,20.849
		c2.304-0.145,4.599-0.482,6.915-0.465c-14.41,12.221-27.838,38.285-11.766,35.047c25.768-4.935,61.761,4.752,87.606,12.914
		c-21.699,13.665-50.502,21.491-73.788,9.637c-21.493-10.742-29.807-31.371-37.043-44.39c-5.43-9.178-15.626,9.396-13.993,30.879
		c-41.383-16.621-72.508-46.285-78.387-54.633c-1.141-0.903-5.979-6.279-6.66-7.607c-3.48-3.187-12.686-15.76-16.237-21.015
		c-5.947-8.721-16.729,2.824-8.933,35.507c-25.946-23.927-39.964-79.503-48.686-113.929c2.658,2.364,5.648,4.33,8.251,6.753
		c0.769,0.369,11.571,7.55,12.005,7.927c0,0,19.438,11.706,52.871,26.02c2.142,0.934,4.347,1.724,6.425,2.807
		c-10.832,6.507-25.555,7.966-38.135,8.204C248.647,1067.147,246.463,1071.447,248.613,1074.088z M631.453,1615.907
		c-4.156-9.845-6.762-14.445-6.762-14.445c-2.004-2.488-5.238-8.812-14.778-18.375c-21.728-23.264-84.77-54.275-93.144-62.679
		c-0.452-0.179-0.862-0.435-1.139-0.798c-4.266-2.286-19.191-14.501-21.446-18.029c-1.293-0.879-2.372-2.073-3.2-3.379
		c-2.032-1.709-16.037-17.07-18.767-39.714c5.398,3.296,14.41,13.646,50.23,18.968c2.339,0.514,6.649-0.431,5.218-6.745
		c17.145,7.464,30.135,3.149,41.911-1.771c-11.569,38.926,10.716,62.325,12.274,65.077c0.001,0.001,8.421,8.054,8.422,8.055
		c2.711,1.533,13.475,10.873,33.285,12.969c22.852,2.478,45.624-4.626,60.222-23.042c0.951-1.216,1.804-2.517,2.897-3.613
		c0.158-0.465,0.41-0.875,0.772-1.177c2.61-5.698,16.691-24.685,7.197-58.212c16.017,6.3,23.832,8.205,41.894,1.749
		c-0.729,4.359-0.468,3.776,1.847,6.596c2.842,0.534,33.83-2.369,53.639-19.104c-2.005,17.352-12.042,33.014-16.207,36.676
		c-0.584,1.109-1.412,2.107-2.449,2.833c-3.451,5.464-20.326,19.245-24.01,21.02c-4.329,3.955-32.547,20.878-34.799,21.711
		c-2.73,2.103-5.909,3.541-8.827,5.367c-25.95,15.265-38.255,24.573-38.255,24.573c-0.414,0.512-0.956,0.921-1.557,1.203
		C661.419,1576.233,641.306,1589.43,631.453,1615.907z M781.2,1561.594c0.672-1.221,17.135-6.449,18.135-6.749
		c-0.807,1.32-15.142,23.665-17.351,24.164c-4.569,1.553-9.049,3.37-13.669,4.77C770.084,1579.7,778.725,1565.547,781.2,1561.594z
		 M825.057,1492.866c0.104,1.505-2.6,13.445-5.764,22.359c-3.904,1.203-7.752,2.589-11.702,3.613
		c1.345-2.781,8.827-13.68,15.512-30.93c2.376-5.897,2.343-7.089,3.758-9.868c-0.047-0.738,0.252-1.433,0.469-2.099
		C827.287,1479.507,826.079,1489.407,825.057,1492.866z M815.582,1522.832c0.691-1.002,1.353,0.964,0.218,0.866
		c0.42,1.59-7.84,17.008-9.496,19.902c-1.863,2.934,0.866,2.862-19.411,8.959c0.588-1,15.418-25.801,16.818-26.071
		C807.664,1525.268,811.571,1523.873,815.582,1522.832z M752.852,1626.671c0.473-11.856,9.355-32.231,11.224-34.851
		c1.002-0.477,10.869-4.064,12.76-4.526c-1.779,3.169-11.945,16.797-21.788,35.324
		C754.366,1623.988,753.679,1625.37,752.852,1626.671z M789.933,1614.679c-10.333,7.38-21.544,13.46-33.054,18.792
		c-0.499,0.969-1.045-0.772-0.064-0.337c-0.385-1.408,11.222-22.828,26.975-44.889
		C790.634,1615.424,790.735,1614.188,789.933,1614.679z M795.603,1610.353c-8.252-33.102-7.762-27.683-6.011-30.55
		c5.414-7.449,10.486-15.136,15.691-22.726c2.931,11.903,5.495,23.899,8.26,35.845
		C808.308,1599.431,802.156,1605.182,795.603,1610.353z M818.231,1586.56c-3.548-15.947-8.164-35.555-8.332-37.09
		c11.526-21.406,8.782-17.279,12.466-25.119c3.806,5.422,7.317,11.049,11.041,16.536
		C836.668,1546.158,828.512,1573.369,818.231,1586.56z M835.479,1532.926c-1.357-1.572-7.071-10.681-9.441-14.087
		c-1.963-3.658-0.947,1.39,3.34-16.958c0.55-2.044,0.751-4.181,1.519-6.152c0.111-2.218,0.674-4.369,0.964-6.553
		c-0.32-0.474-0.286-0.926,0.103-1.352c0.567-0.529,0.99,0.533,0.593,0.943C832.729,1491.661,836.302,1513.259,835.479,1532.926z
		 M842.489,1492.35c-3.097-28.743-4.228-36.007-4.228-36.007s3.029,8.793,10.789,27.363
		C846.904,1486.616,844.78,1489.551,842.489,1492.35z M870.01,1489.376c7.171,8.379,14.142,17.06,19.501,26.736
		c-6.595-0.866-13.161-1.92-19.727-2.965c-4.334-8.417-8.375-16.984-12.381-25.555
		C868.217,1488.258,869.379,1488.376,870.01,1489.376z M854.536,1481.027c-1.967-4.356-3.929-8.741-5.435-13.272
		c0.001,0.001,13.383,14.039,13.383,14.04C859.835,1481.68,857.109,1481.663,854.536,1481.027z M858.047,1449.59
		c2.834,0.409,20.948,4.037,23.788,5.508c-2.385,0.815-4.885,1.207-7.321,1.826C872.566,1457.598,859.061,1450.212,858.047,1449.59z
		 M869.72,1463.643c-0.32,3.596-0.469,7.21-0.883,10.806c-1-0.908-17.232-17.011-20.725-23.016c2.935,1.246,5.653,2.965,8.532,4.356
		C872.108,1463.814,869.395,1460.924,869.72,1463.643z M848.504,1537.217c-0.801-3.681-6.388-35.119-4.514-36.617
		c2.483-3.592,5.167-7.065,7.871-10.499c4.113,8.511,8.187,17.052,12.355,25.542c-0.964,1.31-1.749,2.799-2.986,3.886
		C859.616,1522.328,849.716,1536.005,848.504,1537.217z M850.466,1545.182c5.546-7.794,11.13-15.567,16.775-23.289
		c0.539,1.001,11.151,21.25,9.612,22.726c-5.678,7.59-11.13,15.354-16.919,22.858
		C855.458,1560.703,852.561,1552.99,850.466,1545.182z M888.295,1584.683c-0.478,0.832-0.986,2.521-2.223,2.108
		c-8.626-2.295-16.489-7.253-22.291-14.036c3.765-5.356,16.144-22.177,16.485-22.602
		C885.636,1562.679,889.043,1578.038,888.295,1584.683z M893.644,1574.235c-1.109-7.995-3.754-15.653-6.455-23.212
		c4.134,1.962,8.038,4.381,12.09,6.519c-0.806,5.704-2.364,11.399-5.009,16.527C895.018,1574.875,892.975,1575.204,893.644,1574.235
		z M893.056,1522.738c4.202,8.707,6.89,18.344,6.66,28.072c-19.659-9.785-15.078-6.807-26.617-30.977
		C879.771,1520.652,886.392,1521.846,893.056,1522.738z M897.778,1496.556c-1.83-0.941-11.818-6.766-23.229-16.288
		c0.066-2.334,0.613-11.132,1.109-15.418c7.833,3.439,15.704,6.813,23.477,10.388
		C898.615,1482.337,898.226,1489.449,897.778,1496.556z M923.324,1509.022c-4.664-1.446-15.373-6.864-19.684-9.121
		c0.277-7.274,0.943-14.526,1.297-21.792c4.795,1.406,17.379,8.588,21.442,10.934
		C925.56,1495.729,924.297,1502.354,923.324,1509.022z M958.179,1521.121c-1.681,0.296-21.73-6.688-29.117-9.727
		c0.998-6.169,1.886-12.355,2.957-18.511c10.909,7.176,20.328,16.771,26.809,28.144
		C959.775,1521.676,957.821,1522.141,958.179,1521.121z M948.226,1485.584c6.522,7.047,10.311,16.235,11.417,25.422
		c-0.64-0.836-1.792-1.6-1.882-2.641c-4.75-4.942-5.528-7.796-20.811-19.531C940.662,1487.597,944.459,1486.642,948.226,1485.584z
		 M921.78,1467.956c9.035,3.604,18.577,9.736,21.34,12.854c-17.334,4.667-6.978,6.132-33.464-7.415
		C911.158,1472.582,920.649,1468.279,921.78,1467.956z M913.815,1464.782c-1.01,0.501-11.226,5.607-12.53,4.829
		c-3.32-1.505-18.605-8.242-18.605-8.242c1.847-0.78,7.911-1.837,10.806-2.547C895.891,1458.097,911.415,1463.748,913.815,1464.782z
		 M953.2,1375.051c-4.612-5.892-8.336-12.444-11.502-19.211c-0.728-1.107,9.6-15.858,10.303-16.86
		c0.853,1.591,10.166,20.062,10.84,22.231C959.732,1365.891,956.438,1370.456,953.2,1375.051z M922.364,1345.209
		c-2.983-1.073-3.874-4.126-8.652-1.378c-3.581,6.089,4.38,13.586,1.826,32.286c-5.224,35.336-51.449,19.698-63.276,0.602
		c-2.444-2.199-7.71-9.638-11.062-17.982c19.229-0.502,25.131-6.435,28.545-8.195c1.736-1.928,3.784-3.579,5.205-5.777
		c3.064-4.345,7.097-13.481,4.151-18.033c-3.062-1.369-24.27-4.504-30.734-10.363c-6.58-1.232-29.018-20.115-41.399-46.839
		c8.885,1.105,24.984,11.196,32.504,15.729c2.875,1.817,7.031-0.815,6.63-4.181c-3.369-22.904-50.172-55.329-52.496-57.658
		c5.67,1.999,23.573,9.546,24.343,10.759c2.22,0.233,17.356,8.281,26.224,15.226c13.432,10.722,18.358,21.769,7.619,35.495
		c-9.445,12.137,12.825,9.836,25.431,0.725c9.376-6.779,11.684-16.214,11.344-27.197c19.666,31.403,5.515,79.1,18.793,73.583
		c4.313-1.464,11.571-26.5,12.867-30.9c1.045,16.766,4.027,33.481,9.659,49.343c1.267,0.721-0.943,1.271-0.316,0.026
		C928.832,1350.563,922.896,1345.728,922.364,1345.209z M929.758,1308.426c-1.131-11.791-1.413-23.556-1.16-26.258
		c0.186,0.391,5.906,16.746,5.985,17.18C933.051,1302.406,931.562,1305.512,929.758,1308.426z M962.142,1223.153
		c1.519,4.719,3.285,9.352,4.774,14.083c-11.271-4.392-32.581-15.462-35.081-17.176
		C936.167,1219.973,957.056,1222.49,962.142,1223.153z M935.359,1214.224c7.605-2.31,25.901-2.927,36.101-2.641
		c-1.082,0.918-6.374,4.671-7.939,5.529C963.52,1217.112,940.922,1214.533,935.359,1214.224z M933.439,1233.959
		c2.44,0.659,34.586,15.375,36.595,16.698c-0.001,0-12.319,1.096-14.117,1.297c-1.122,0.043-2.461,0.478-3.315-0.482
		C950.99,1250.051,936.001,1237.254,933.439,1233.959z M952.01,1273.78c-9.206-12.084-16.041-24.779-17.986-30.422
		c1.157,0.799,14.903,13.006,15.559,13.677C950.534,1262.585,951.259,1268.191,952.01,1273.78z M957.808,1298.17
		c-6.169-1.011-12.287-2.338-18.409-3.588c-1.693-4.594-11.043-30.876-10.388-36.186
		C930.236,1259.865,955.362,1293.566,957.808,1298.17z M962.556,1305.457c5.984,8.646,12.997,22.085,14.514,26.032
		c-7.543-0.431-15.077-1.088-22.606-1.647c-4.428-9.356-8.793-18.767-12.376-28.481
		C945.017,1301.806,961.388,1305.127,962.556,1305.457z M937.757,1306.945c12.585,31.164,14.189,21.263,3.938,36.74
		c-1.003,1.493-1.881,3.084-3.119,4.411c-3.413-9.032-5.725-18.451-7.265-27.973
		C930.914,1318.661,936.854,1307.859,937.757,1306.945z M957.177,1380.004c2.918-4.215,5.747-8.502,8.869-12.564
		c6.513,13.012,13.429,28.94,14.68,33.153C971.891,1394.995,963.973,1387.939,957.177,1380.004z M986.353,1397.598
		c0,0-13.536-30.502-13.537-30.503c5.209,1.732,10.273,3.886,15.439,5.764C988.742,1381.139,988.068,1389.479,986.353,1397.598z
		 M980.274,1338.592c3.464,8.84,6.254,18.042,7.274,27.508c-6.375-2.391-18.901-6.793-19.368-8.2
		c-3.537-7.265-7.265-14.437-10.661-21.766C980.715,1337.435,980.104,1337.592,980.274,1338.592z M975.129,1298.835
		c-15.746-13.591-16.617-17.352-16.374-21.903c-0.514-1.667-1.956-12.297-2.099-14.01c1.295,0.874,22.395,17.797,23.396,18.613
		C978.392,1287.295,976.886,1293.102,975.129,1298.835z M980.282,1303.191c1.493-5.858,3.293-11.638,4.864-17.479
		c1.943,0.926,18.877,14.856,22.594,18.136c0.198,1.054,0.747,16.81,0.729,18.528
		C997.887,1317.197,983.675,1306.637,980.282,1303.191z M1014.757,1325.776c-0.565-6.811-0.557-15.331-0.576-16.331
		c2.197,1.67,15.324,13.26,26.595,25.781C1031.801,1333.012,1023.127,1329.676,1014.757,1325.776z M1038.665,1298.392
		c1.327-0.716,14.653,17.046,9.983,36.109c0,0-13.118-14.333-31.403-30.516C1024.339,1301.975,1031.523,1300.265,1038.665,1298.392z
		 M1034.821,1293.144c-23.538,6.076-23.111,6.408-23.946,5.457c-7.939-6.705-21.455-17.538-21.455-17.538
		c6.519-3.063,13.089-6.05,19.693-8.933C1023.167,1281.37,1032.212,1289.768,1034.821,1293.144z M1002.872,1268.204
		c-21.429,10.345-18.603,8.692-20.559,7.329c-2.715-2.187-19.302-15.157-22.265-17.888c21.313-2.426,20.568-2.382,22.811-0.567
		C985.485,1258.19,997.615,1264.826,1002.872,1268.204z M974.403,1240.342c-0.348-1.001-5.301-15.127-5.653-16.361
		c4.721,0.535,22.983,3.214,26.13,3.639c0.51,1,7.352,14.17,10.602,21.066C1001.423,1248.396,989.777,1246.129,974.403,1240.342z
		 M972.603,1218.366c0.853-0.739,7.152-5.174,9.019-6.224c7.359,0.179,14.68,1.224,21.996,2.043
		c-2.282,2.521-4.377,5.252-6.86,7.568C995.758,1221.622,977.015,1219.246,972.603,1218.366z M1012.714,1249.45
		c-3.357-6.933-7.061-13.694-10.286-20.683c1.005,0.096,20.742,2.169,21.438,3.494c3.835,5.354,7.939,10.508,11.758,15.875
		C1028.094,1249.633,1020.359,1250.081,1012.714,1249.45z M1042.078,1246.515c-0.805-1.039-9.556-12.477-10.516-14.108
		c4.511,0.288,23.77,2.371,34.842,2.462C1064.402,1236.428,1054.557,1242.913,1042.078,1246.515z M1038.699,1221.229
		c7.406,1.954,14.782,4.224,21.787,7.355c-8.865-0.23-17.7-1.126-26.523-1.963
		C1035.487,1224.774,1037.112,1223.021,1038.699,1221.229z M1032.151,1219.403c-1.728,2.184-3.677,4.181-5.469,6.314
		c-7.496-0.887-15.004-1.724-22.444-2.978C1011.22,1213.44,1009.429,1214.482,1032.151,1219.403z M1052.3,1103.213
		c-2.269,5.303-6.018,6.078-5.64,11.049c2.393,3.64,3.496,4.154,14.364,0.678c10.979-3.646,16.096-8.965,18.908-11.284
		c2.295,23.24-22.604,40.598-27.219,42.214c-2.378,2.049-14.523,9.193-17.969,10.572c-5.208,4.547-55.415,22.516-6.344,22.628
		c16.847,0.066,30.638-6.431,33.724-7.163c-3.438,18.104-29.797,29.9-44.778,29.044c-7.027,2.017-45.969,0.124-49.104,0.183
		c-48.402-0.641-50.594,11.866-54.24,12.483c-4.711,7.047,3.996,8.235,3.746,34.172c-0.06,35.156-7.463,56.152-8.268,57.641
		c-6.963-52.65-13.645-49.513-17.914-57.969c-1.82-0.899-5.852-6.104-9.923-7.12c-3.089-0.542-5.815,2.684-4.945,5.648
		c4.828,16.354,4.521,31.942-12.423,36.382c4.66-14.921,1.198-18.461-0.179-23.34c-0.985-1.096-1.523-2.496-2.346-3.695
		c-7.166-10.902-18.275-16.533-20.201-18.698c-0.934-0.174-9.436-5.262-10.294-6.071c-1-0.175-69.658-32.798-75.102-28.916
		c-2.636,1.54-2.722,5.896-0.068,7.47c2.65,1.836,59.777,38.409,73.541,59.97c-3.896-1.471-25.015-14.757-32.756-4.561
		c-2.837,3.424,19.365,58.47,73.208,69.641c-0.366,4.482-5.67,13.623-22.666,15.401c-9.361,1.428-15.442-1.715-17.018,3.601
		c-0.88,3.148,8.923,37.436,47.043,51.493c2.997,0.068,7.169,3.39,22.466,1.34c1.66-0.922,3.541-1.263,5.286-1.971
		c23.627-9.566,19.199-37.42,19.181-45.333c29.331,22.564,25.113,59.682-7.76,76.77c-9.307,4.909-21.061,7.615-25.789,7.453
		c-15.038,4.376-50.46-8.963-52.453-10.486c-2.493-0.019-10.593-6.151-11.728,3.05c-4.992,46.188-28.555,81.709-29.556,82.589
		c-0.773,2.674-14.306,21.583-36.16,39.85c-43.899,36.357-94.935,54.183-124.897,85.75c-0.71-24.322,13.159-43.573,17.154-46.698
		c0.516-2.348,15.239-16.075,17.526-17.09c14.539-14.325,68.299-39.345,96.407-63.101c43.959-34.878,37.297-88.745,26.293-72.67
		c-11.67,14.541-30.67,20.751-38.016,21.647c0.001-0.001,15.038-18.391,15.038-18.391c0,0,13.015-21.684,13.016-21.685
		c0.452-1.574,1.25-3.008,2.005-4.441c39.05-80.303,1.006-136.198-0.683-141.079c-2.364-3.067-3.972-6.689-6.519-9.62
		c-9.226-10.755-7.983,24.032-32.201,36.169c-2.078,1.007-4.147,2.163-6.459,2.496c1.045-2.833,2.59-5.444,3.652-8.268
		c26.114-63.531-32.043-96.23-99.308-106.28c22.765-21.971,109.655-32.877,110.917-32.773c3.643-0.862,7.372-1.403,10.917-2.671
		c28.11-9.184,36.319-36.556,35.862-65.998c-3.576-28.299-5.343-25.474-7.59-34.112c18.827-0.602,25.565,21.501,27.867,40.188
		c3.718,4.983,7.477,1.131,8.477,0.414c3.258-5.371,26.577-24.061,6.8-62.129c-0.811-1.634-2.056-3.097-2.321-4.945
		c58.616-2.255,37.608,39.275,43.097,49.556c7.576,1.792,4.882,0.126,13.554-12.679c0.563-0.832,1.182-1.634,1.979-2.248
		c2.388-4.031,12.177-13.416,15.397-15.316c5.443-5.845,30.635-19.04,34.983-20.026c3.555-2.092,24.117-9.951,26.442-10.269
		c1.066-0.765,34.437-12.112,35.439-12.248c0.405-0.282,18.26-7.121,19.586-7.376c0.332-0.231,20.074-8.723,29.74-15.96
		c3.221-1.941,5.7-4.919,9.001-6.711c1.695,17.883-24.099,35.72-26.749,36.779c-1.559,1.707-10.631,7.422-12.812,8.131
		c-3.906,3.556-40.833,21.232-44.829,22.103c-1.751,1.079-14.564,6.547-16.613,6.852c-1,0.805-5.328,3.537-2.163,7.359
		c8.841,10.905,36.531,14.73,37.547,14.94c-20.851,13.387-51.165,19.113-74.965,23.404c-16.84,2.121-18.112,2.857-18.946,4.586
		c-3.086,4.988,4.818,9.051,10.294,11.207c3.703,1.395,7.653,1.86,11.519,2.594c0.183-0.016,14.373-0.013,15.051,0.038
		c-9.99,4.976-37.527,9.096-48.383,8.097c-1.987,0.467-38.31-0.197-40.439-1.088c-1.756-0.071-16.92-1.351-18.792-1.894
		c-4.966,0.004-9.872-1.186-14.833-1.207c-3.178,0.077-5.324,4.079-3.537,6.741c1.139,1.996,3.558,2.368,5.589,2.931
		c17.965,4.912,29.617,17.428,32.474,27.158c-11.438-0.475-30.776-3.989-95.648,17.125c-3.251,0.998-3.835,5.776-1.22,7.76
		c35.238,28.627,73.171,21.501,74.172,21.583c4.45-1.318,9.053-2.201,13.298-4.147c1.651-0.64,3.119-1.813,4.919-2.022
		c1.919-1.735,10.086-5.458,18.72-14.851c0.734-0.793,1.378-1.719,2.346-2.244c0,0,7.401-9.802,11.131-16.314
		c1.083-1.719,1.822-3.682,3.285-5.128c5.055,16.257-2.731,20.625-0.29,27.773c4.901,3.023,3.927,1.101,19.219-4.232
		c0.935-0.658,8.718-4.481,10.158-4.693c4.325-3.474,42.55-18.217,80.29-66.561c1.489-1.86,2.773-3.895,4.492-5.559
		c1.981,16.199-5.799,28.955-10.085,36.651c-1.57,2.709,0.819,6.442,3.865,6.421c3.266,0.137,7.048-4.291,9.262-4.953
		c3.11-2.952,6.625-5.474,9.603-8.584c2.59-2.389,4.663-5.269,7.231-7.666c0,0,6.204-8.15,11.962-17.952
		c0.956-1.583,1.574-3.387,2.867-4.748c0,0,7.948-16.405,13.392-32.666l0.281-0.149c0-0.001,17.398-60.247,17.398-60.247
		C1076.471,1039.883,1064.267,1090.315,1052.3,1103.213z M995.427,1094.532c-26.419,38.544-60.794,66.419-100.81,82.474
		c2.352-13.299-4.232-33.271-10.41-32.931c-1.062,0.094-2.026,0.55-3.003,0.909c-0.098,0.102-0.294,0.312-0.392,0.418
		c-23.802,56.19-68.116,63.496-111.019,35.456c19.751-6.566,61.718-17.239,79.279-13.844c2.054-0.399,8.859,1.037,10.896,1.37
		c2.747,0.521,5.461-2.236,4.932-4.974c-1.105-5.452-3.639-10.457-5.986-15.448c-0.87-0.956-1.557-2.078-1.997-3.276
		c-1.979-2.078-3.515-4.526-5.576-6.527c-1.749-1.89-3.78-3.481-5.636-5.247c24.014,1.018,82.916,9.422,119.368-18.426
		c7.814-6.101,1.756-10.52-1.523-9.727c-11.154,2.095-27.09,4.731-38.396,2.986c77.255-11.213,104.02-41.667,86.625-40.751
		c-24.467-0.362-37.796-7.245-37.389-8.409c26.46-10.92,47.679-22.069,47.679-22.069c0.001-0.001,21.992-13.536,21.992-13.537
		c3.033-2.709,6.472-4.945,9.514-7.658c-12.438,51.781-26.297,92.198-48.959,114.249
		C1011.546,1109.806,1005.577,1080.431,995.427,1094.532z M1122.918,785.169c1.408,0.384,2.88,0.563,4.232,1.177
		c0.798-0.354,1.685-0.021,2.534,0.043c5.499,0.802,11.071,0.363,16.578-0.167c-1.163,3.168-6.101,13.184-7.803,14.97
		c-1.011,2.602-2.893,4.744-4.262,7.163l-0.269-0.064c-11.653,20.1-31.216,24.308-34.629,26.173
		c-0.414,0.627-0.781,1.284-1.075,1.979c0,7.932,2.793,5.634,38.639,5.785c-2.999,10.489-19.534,29.965-23.456,31.762
		c-2.589,3.17-12.884,10.205-20.606,14.125c-11.364,6.119-4.657,15.376,29.94,8.921c-24.036,45.726-65.231,73.654-95.208,79.441
		c2.316-1.531,4.488-3.268,6.792-4.816c0.001-0.001,7.226-7.568,7.227-7.568c1.4-2.428,17.442-21.742,13.281-54.582
		c-0.546-3.656-6.028-4.731-7.944-1.604c-1.915,3.136-7.097,11.723-10.384,14.053c-0.998,1.442-2.282,2.747-3.771,3.673
		c-11.264,12.246-33.115,11.841-39.223-4.36c17.905,1.822,32.743-2.815,38.989-19.624c2.411-6.316-7.083-6.233-8.332-6.442
		c-40.313-5.916-36.218-32.258-24.628-71.915c23.564,25.604-1.308,52.303,12.658,50.618c4.172-0.296,20.901-21.27,27.333-42.41
		c7.856-25.334,2.069-51.489,2.069-51.489l-0.175,0.435c-6.084-26.181-18.114-48.511-18.114-48.511
		c-0.978-0.602-4.737-7.689-5.141-8.788c-1.894-2.397-3.413-5.094-4.83-7.786c2.82,0.174,8.988,1.788,11.297,3.413
		c11.26,3.075,21.871,19.685,23.831,21.305c0.405,0.132,0.823,0.277,1.259,0.427c15.018-1.828-8.149-38.923-19.616-49.449
		c-0.721-0.696-1.51-1.335-2.014-2.193c-0.618-0.426-9.733-7.902-10.106-8.605c0,0-18.271-11.689-18.272-11.689
		c13.133-1.404,29.259,6.103,33.003,8.793c1.707,0.623,3.447,1.864,5.358,1.19c2.026-0.529,3.2-2.479,3.341-4.475
		c0.098,0.094,15.967,15.189,16.049,15.298c1.238,0.555,7.261,5.493,8.042,6.493c1.001,0.298,10.131,5.689,12.001,10.998h0.354
		C1095.941,734.982,1090.54,776.252,1122.918,785.169z M1109.1,706.125c-9.004-1.591-20.898-6.117-31.988-13.443
		c0.742-6.536,1.493-13.076,2.406-19.59c0.654,0.389,29.198,18.201,29.552,18.874C1109.219,696.679,1109.13,701.406,1109.1,706.125z
		 M1115.491,707.417l0.055-0.017l-0.299-0.124c-0.269-3.959-0.051-7.995-0.103-11.979c0.001,0,23.822,13.434,23.823,13.434
		C1124.74,708.81,1131.113,708.622,1115.491,707.417z M1148.682,706.577c-4.654-1.912-21.167-10.758-29.083-15.827
		c2.24-0.773,21.304-6.912,23.413-7.402C1145.938,690.788,1147.841,698.629,1148.682,706.577z M1113.776,651.424
		c1.269,0.058,18.095,9.102,26.506,26.327c-31.058,10.269-27.298,9.087-29.309,7.973c-9.313-5.836-18.677-11.604-27.833-17.675
		C1087.755,665.452,1112.481,651.951,1113.776,651.424z M1107.04,648.002c-5.659,3.297-28.074,15.392-29.949,16.297
		c-6.211-3.972-12.573-7.705-18.801-11.629c1-0.826,16.782-13.865,18.054-13.392C1086.809,641.176,1097.325,643.561,1107.04,648.002
		z M1098.955,618.932c-1.029,0.496-14.078,2.27-15.742,2.453c-0.662-0.917-16.509-22.886-17.158-23.878
		c5.218-1.298,21.199-3.498,36.156-2.56c1.036,1.488,13.727,19.485,14.543,20.96C1100.377,618.995,1100.4,618.883,1098.955,618.932z
		 M1123.191,614.525c-4.279-6.271-8.823-12.368-12.982-18.72c15.893,1.78,32.405,8.671,39.083,12.829
		C1140.644,610.814,1131.924,612.708,1123.191,614.525z"/>
	<path class="st0" d="M766.567,1436.04C766.776,1436.249,766.776,1436.249,766.567,1436.04"/>
	<path class="st1" d="M628.957,407.231c1.689-1.66,4.518-1.647,6.224-0.013c102.632,95.566,112.394,196.117,0.081,309.222
		c-3.77,3.944-7.582-1.079-8.776-2.312C523.85,608.151,519.837,508.441,628.957,407.231 M619.972,693.706
		c2.491,2.683,4.744,5.644,7.568,7.991c1.105,1.843,2.978,3.247,4.526,4.778c1.263-1.071,2.427-2.248,3.618-3.392l-0.124-0.303
		c5.236-4.504,28.004-31.369,28.332-33.302c10.288-11.032,35.845-55.341,38.771-78.336c0.879-1.688,2.5-11.685,2.654-13.989
		c10.041-58.411-33.48-122.508-51.113-137.406c-0.241-1.024-12.644-14.178-22.129-23.012
		C532.635,508.519,536.396,599.47,619.972,693.706z"/>
	<path class="st2" d="M625.181,470.861c2.824-3.238,8.033-4.066,11.681-1.741c5.105,3.43,35.894,48.251,36.045,83.289
		c0.431,35.835-9.729,60.063-31.817,90.507c-0.887,1.073-4.977,8.128-11.723,5.576c-1.941-0.678-3.69-1.928-4.868-3.609
		C577.681,582.208,581.627,523.013,625.181,470.861 M604.337,530.771l-0.239,0.162c-0.514,2.018-2.396,9.395-2.299,11.485
		c-4.678,12.395,1.121,48.497,7.163,57.606c0.047,0.968,0.478,1.864,1.032,2.654c1.972,5.541,10.07,21.333,22.065,37.039
		c12.181-16.047,21.133-33.32,21.813-36.45c14.34-27.507,14.917-68.384-9.463-107.687c-0.149-0.849-0.802-1.476-1.28-2.137
		c-0.453-1.255-3.854-6.603-4.582-7.133c-1.809-3.392-4.241-6.412-6.476-9.522C615.056,499.967,606.349,520.998,604.337,530.771z"/>
	<path class="st3" d="M628.718,1251.263c16.127-18.132,113.706,185.184-1.766,177.418
		C548.524,1423.59,585.184,1300.917,628.718,1251.263 M621.747,1276.459c-7.738,3.507-78.469,150.364,20.555,142.555
		c1.071-0.171,2.129-0.431,3.157-0.798l-0.392-0.141c8.6,0.574,25.322-13.001,26.433-25.52l0.026,0.414
		c11.289-31.47-15.564-95.336-18.089-96.885c-1.778-4.176-8.818-17.488-10.35-18.387c-0.107-2.008-9.224-14.091-11.015-16.293
		C629.482,1264.597,622.832,1273.567,621.747,1276.459z"/>
	<path class="st4" d="M528.616,1410.507c28.646-15.186,49.166,25.437,22.368,39.531c-7.509,3.895-17.291,3.225-23.98-2.048
		C512.713,1437.297,516.953,1416.02,528.616,1410.507 M526.325,1438.421c4.745,8.039,15.21,10.204,22.466,5.943
		c11.153-6.026,11.121-22.375,0.619-28.601C535.769,1406.418,516.919,1423.202,526.325,1438.421z"/>
	<path class="st4" d="M714.05,1409.219c27.233-11.642,44.157,26.309,22.376,39.33C708.15,1467.043,685.43,1422.578,714.05,1409.219
		 M720.531,1413.494c-16.292,2.797-18.864,25.893-2.598,32.078c14.298,4.707,25.932-9.171,21.293-21.224
		C736.747,1416.817,728.312,1411.864,720.531,1413.494z"/>
	<path class="st5" d="M625.007,1469.969c27.377-7.349,50.797,26.896,31.489,50.094c-5.883,7.47-15.333,11.979-24.851,11.732
		C596.175,1531.833,587.918,1479.797,625.007,1469.969 M607.805,1507.529c4.359,15.566,22.956,23.445,37.474,14.543
		c14.67-9.038,16.297-30.125,2.517-41.284C629.219,1465.505,600.566,1483.935,607.805,1507.529z"/>
</g>
</svg>
