<?xml version="1.0" standalone="no"?>
<!DOCTYPE svg PUBLIC "-//W3C//DTD SVG 20010904//EN"
 "http://www.w3.org/TR/2001/REC-SVG-20010904/DTD/svg10.dtd">
<svg version="1.0" xmlns="http://www.w3.org/2000/svg"
 width="300.000000pt" height="300.000000pt" viewBox="0 0 300.000000 300.000000"
 preserveAspectRatio="xMidYMid meet">
<metadata>
Created by potrace 1.10, written by Peter Selinger 2001-2011
</metadata>
<g transform="translate(0.000000,300.000000) scale(0.100000,-0.100000)"
fill="#000000" stroke="none">
<path d="M1463 2608 l-10 -173 36 -55 36 -55 -28 -95 c-24 -84 -32 -99 -70
-131 -37 -32 -40 -38 -28 -53 12 -14 11 -20 -7 -39 -20 -22 -20 -22 -2 -57 11
-19 19 -42 20 -51 0 -9 -41 -48 -91 -87 l-91 -71 -110 -188 c-226 -388 -262
-455 -273 -518 l-11 -60 -69 -6 c-39 -4 -102 -7 -140 -8 l-70 -1 -95 -95 -95
-95 45 -131 c52 -152 18 -124 307 -252 l192 -86 308 51 c169 28 312 54 316 58
5 4 -9 18 -30 31 l-38 24 68 3 c62 3 81 12 57 27 -16 10 -11 25 8 25 14 0 23
-15 35 -60 l17 -60 100 0 100 0 0 38 c0 21 -7 48 -16 60 l-15 22 100 0 100 0
3 -27 c2 -18 14 -33 36 -46 29 -17 43 -18 120 -11 l87 9 3 41 c3 39 2 41 -45
63 l-48 22 -44 317 c-24 174 -44 322 -43 327 0 9 63 173 240 622 l59 151 -20
21 c-18 17 -19 22 -6 37 12 15 9 21 -29 53 -36 32 -46 49 -71 130 l-30 94 37
52 37 51 -9 175 c-5 96 -10 176 -12 177 -6 8 -211 -114 -237 -142 l-28 -30
-70 21 -70 20 -70 -20 -70 -21 -22 26 c-18 21 -223 148 -240 148 -2 0 -9 -78
-14 -172z m238 -104 c6 -3 -26 -40 -71 -81 -44 -42 -79 -78 -76 -81 3 -2 35
23 72 57 37 34 68 60 70 58 2 -2 -36 -143 -41 -154 -5 -9 -106 25 -110 36 -3
9 -15 87 -25 176 -11 88 -23 178 -26 199 -6 38 -3 36 96 -82 56 -67 106 -125
111 -128z m543 46 c-13 -107 -27 -202 -29 -210 -4 -12 -104 -46 -110 -37 -4 6
-44 152 -42 154 1 1 33 -26 70 -59 37 -33 70 -58 73 -55 3 2 -31 37 -74 78
l-79 73 106 127 c58 69 107 126 108 125 1 -1 -9 -89 -23 -196z m-593 114 c45
-25 47 -27 52 -82 3 -31 5 -57 4 -59 -2 -1 -45 48 -97 109 -90 107 -92 110
-49 84 24 -14 65 -38 90 -52z m549 29 c-23 -27 -65 -76 -93 -110 -28 -34 -53
-60 -55 -59 -1 2 0 28 4 58 l6 55 87 51 c47 29 87 52 89 52 2 0 -15 -21 -38
-47z m-681 -317 c1 -13 -6 -8 -24 18 -24 36 -25 40 -18 159 l7 122 18 -140 c9
-77 17 -149 17 -159z m749 26 c-11 -18 -22 -31 -25 -29 -2 3 4 72 14 153 l18
149 7 -120 c6 -110 5 -123 -14 -153z m-323 209 c33 -10 60 -23 60 -28 0 -13
-118 -223 -125 -223 -10 0 -131 222 -125 228 6 7 103 39 120 41 6 0 37 -8 70
-18z m96 -29 c-17 -33 -13 -72 19 -180 17 -56 30 -103 30 -106 0 -2 -25 -14
-55 -26 -31 -12 -62 -32 -70 -43 -13 -19 -16 -16 -45 44 l-32 64 69 120 c38
66 72 129 76 139 4 10 10 16 13 13 3 -3 1 -14 -5 -25z m-237 -131 l67 -120
-32 -62 c-26 -52 -33 -60 -41 -45 -5 9 -35 28 -66 42 -31 13 -58 26 -60 28 -2
2 11 51 27 109 17 58 31 119 31 136 0 17 2 31 4 31 2 0 34 -54 70 -119z m-201
-171 c4 0 5 5 2 10 -10 16 11 12 25 -5 11 -13 10 -14 -3 -9 -13 4 -16 -3 -19
-36 l-3 -42 -28 57 c-27 55 -27 56 -5 41 12 -9 26 -16 31 -16z m319 -53 c35
-79 58 -176 58 -248 0 -31 -5 -36 -50 -58 l-49 -25 -51 24 c-57 27 -59 33 -39
163 9 65 73 228 88 227 3 -1 23 -38 43 -83z m262 31 c-34 -68 -34 -68 -34 -22
0 32 5 42 28 56 15 10 28 18 30 18 1 0 -10 -24 -24 -52z m-610 -27 l35 -68
-72 -64 c-39 -35 -68 -57 -65 -49 3 8 18 68 34 133 15 64 29 117 31 117 1 0
18 -31 37 -69z m716 -189 c0 -2 -31 24 -70 58 l-69 62 35 71 36 70 34 -129
c18 -71 34 -130 34 -132z m-503 172 c-9 -9 -92 29 -117 53 -22 22 -16 20 49
-12 40 -20 71 -38 68 -41z m304 52 c-12 -12 -38 -29 -59 -35 -20 -7 -44 -15
-52 -18 -36 -13 11 20 66 47 73 35 72 35 45 6z m-426 -25 c17 -11 49 -36 73
-58 l44 -38 -8 -63 c-3 -34 -10 -61 -14 -60 -3 2 -35 33 -69 70 -58 62 -63 71
-65 118 -1 27 0 50 4 50 3 0 19 -9 35 -19z m398 -155 l-68 -73 -9 65 -9 66 44
40 c24 21 58 47 74 57 l30 19 3 -50 c3 -50 2 -52 -65 -124z m-299 119 c34 -15
45 -28 28 -39 -4 -2 -22 9 -40 25 -37 34 -37 34 12 14z m244 -14 c-31 -28 -48
-31 -48 -10 0 8 53 36 73 38 4 1 -7 -12 -25 -28z m-319 -121 c58 -65 61 -70
39 -75 -33 -7 -212 -45 -214 -45 -5 0 102 190 107 190 3 0 34 -31 68 -70z
m505 -23 c27 -50 51 -87 53 -80 2 6 -2 22 -10 35 -8 13 -27 45 -42 72 l-28 50
26 -21 c89 -70 97 -80 84 -112 -6 -17 -16 -32 -23 -35 -6 -2 -63 6 -125 19
-63 13 -116 24 -118 24 -6 1 121 141 128 141 3 0 28 -42 55 -93z m-651 -8
l-46 -81 -14 27 c-8 14 -13 30 -11 34 3 8 109 101 114 101 1 0 -18 -36 -43
-81z m803 30 c3 -6 3 -13 0 -16 -7 -8 -44 25 -58 51 -9 17 -7 17 21 -3 17 -12
33 -27 37 -32z m-885 23 c-14 -26 -40 -46 -49 -38 -4 4 6 19 21 32 34 29 41
30 28 6z m-6 -51 c-3 -12 3 -37 14 -60 l21 -40 -30 -21 -30 -21 -19 43 -18 43
29 38 c33 41 42 46 33 18z m895 -101 c-9 -25 -37 -96 -60 -158 -24 -62 -44
-111 -46 -110 -1 2 5 63 13 137 9 87 21 148 33 171 11 21 17 47 13 61 -4 20 0
18 30 -16 l35 -40 -18 -45z m-619 8 c-12 -18 -60 -98 -109 -177 l-87 -144 -12
124 c-6 68 -12 138 -12 155 l-1 30 103 21 c147 30 143 30 118 -9z m421 6 c93
-18 98 -20 97 -44 0 -14 -6 -83 -12 -154 l-12 -130 -100 164 c-55 90 -104 170
-109 178 -7 12 -4 14 15 10 13 -3 68 -13 121 -24z m-327 -49 l51 -28 62 32
c34 17 62 37 62 43 0 7 41 -55 90 -136 50 -82 100 -162 111 -178 l21 -29 -115
-122 c-63 -67 -142 -152 -175 -189 l-61 -67 -27 32 c-81 97 -267 298 -271 293
-3 -3 59 -78 137 -167 79 -89 135 -159 124 -156 -10 3 -37 9 -59 12 -22 4 -48
9 -58 12 -20 5 -161 289 -151 305 3 5 -1 17 -10 27 -15 17 -9 30 91 193 77
125 111 171 118 162 6 -6 33 -24 60 -39z m-319 -136 c8 -78 13 -143 11 -145
-2 -2 -63 23 -135 55 l-132 58 117 92 c64 50 118 89 121 86 2 -2 11 -68 18
-146z m-130 -105 c71 -31 130 -58 132 -59 2 -2 -73 -42 -165 -90 -92 -48 -205
-108 -250 -132 l-82 -44 52 88 c29 48 80 134 112 191 33 56 62 102 66 102 3 0
64 -25 135 -56z m127 -288 l-18 -208 -92 -79 -92 -79 -140 148 c-78 81 -141
151 -142 156 -1 9 493 278 499 272 1 -2 -6 -96 -15 -210z m108 34 c38 -83 69
-159 69 -168 0 -9 -18 -93 -41 -186 -23 -94 -44 -184 -48 -200 -6 -24 -15 3
-48 140 l-41 169 16 202 c9 112 18 201 20 198 2 -2 35 -72 73 -155z m533 0
c-35 -88 -64 -164 -64 -170 0 -6 -38 -10 -96 -10 l-96 0 130 138 c71 75 142
152 157 170 15 17 28 32 30 32 1 0 -26 -72 -61 -160z m-857 -418 c2 -9 -5 -95
-15 -189 l-17 -173 -95 71 c-52 39 -115 80 -140 91 -30 14 -66 44 -109 95
l-63 75 12 61 c7 41 32 100 72 173 l60 110 147 -149 c80 -82 147 -156 148
-165z m521 232 c45 -6 56 -12 86 -48 24 -30 35 -56 41 -93 6 -50 3 -60 -72
-233 -43 -99 -83 -180 -89 -180 -25 0 -31 34 -48 265 -9 132 -20 255 -23 274
-6 33 -5 34 24 28 17 -3 53 -9 81 -13z m231 -17 c-2 -2 -25 -18 -50 -35 l-47
-32 -26 35 -27 35 77 0 c43 0 75 -2 73 -3z m6 -222 c-14 -121 -25 -238 -26
-260 -1 -40 -1 -40 -10 -10 -12 42 -59 346 -59 383 0 26 9 36 58 69 31 22 58
39 59 38 1 0 -9 -99 -22 -220z m-335 -56 c11 -140 21 -268 24 -285 4 -30 1
-33 -40 -49 -25 -9 -48 -14 -52 -10 -4 4 -17 52 -28 108 l-22 102 44 180 c24
99 44 189 44 199 0 11 2 17 5 14 3 -3 14 -119 25 -259z m-211 174 c65 -247
133 -552 125 -564 -11 -19 -53 -8 -71 17 -16 21 -36 30 -102 44 -45 10 -84 20
-85 22 -2 1 -15 86 -30 187 -23 152 -25 186 -14 197 31 31 154 133 160 133 4
1 12 -16 17 -36z m620 -243 c18 -140 35 -266 38 -278 4 -16 19 -30 46 -41 l40
-17 -74 -41 c-73 -40 -78 -41 -117 -15 -30 20 -32 138 -6 371 13 123 24 239
24 259 0 89 19 -3 49 -238z m-115 -228 c0 -1 -32 9 -70 24 -57 21 -75 24 -102
16 -18 -6 -32 -7 -30 -3 2 4 34 80 73 169 l70 162 30 -182 c17 -101 30 -184
29 -186z m-1174 275 l0 -42 -215 -41 -216 -40 77 77 c87 87 79 84 252 87 l102
2 0 -43z m115 -85 c-1 -2 -23 7 -49 20 -42 20 -46 25 -46 57 l0 36 49 -55 c27
-30 48 -56 46 -58z m393 -224 c-11 -22 -17 -22 -46 2 -23 19 -23 20 -12 127
21 215 21 214 45 43 14 -99 19 -161 13 -172z m-613 166 c-154 -146 -255 -237
-259 -233 -7 10 -79 230 -75 233 2 2 94 20 204 40 110 21 202 39 204 42 2 2 7
4 10 4 3 -1 -34 -39 -84 -86z m218 40 c54 -23 83 -40 75 -44 -7 -4 -82 -38
-165 -75 -84 -37 -153 -70 -153 -72 0 -3 43 -67 95 -144 52 -76 93 -139 92
-139 -15 0 -397 180 -395 186 2 4 73 74 158 154 86 81 162 155 169 164 8 9 19
15 25 12 6 -2 51 -21 99 -42z m362 -235 c39 -31 97 -75 130 -98 33 -23 60 -45
60 -48 0 -5 -532 -100 -571 -102 -6 -1 -54 64 -108 144 l-96 145 37 15 c21 9
97 42 168 74 l130 58 90 -66 c50 -36 122 -91 160 -122z m470 81 c4 -6 15 -6
31 0 14 6 29 10 33 10 10 0 -31 -110 -41 -110 -12 0 -48 67 -48 89 0 22 14 28
25 11z m166 -14 c62 -23 64 -25 67 -62 l3 -39 -96 0 c-52 0 -95 3 -95 6 0 16
43 119 50 119 4 0 36 -11 71 -24z m-498 -51 c33 -7 61 -15 63 -18 2 -2 -11
-21 -30 -42 -32 -38 -34 -39 -57 -23 -60 41 -80 63 -74 81 8 20 21 21 98 2z
m346 -52 c25 -34 41 -67 41 -85 0 -15 -2 -28 -4 -28 -2 0 -43 19 -92 43 -77
36 -89 46 -92 69 -3 23 2 30 24 38 37 14 40 6 8 -19 -15 -12 -24 -24 -20 -28
4 -4 23 10 44 30 20 20 40 37 44 37 4 0 25 -25 47 -57z m-226 -22 l18 -31 -61
0 -61 0 33 39 c35 42 42 42 71 -8z m685 -47 c-3 -2 -27 -7 -54 -10 l-49 -6 50
30 c47 28 50 29 53 10 2 -11 2 -22 0 -24z m-449 -50 c2 -2 -27 -4 -66 -4 -66
0 -71 1 -77 24 -3 13 -9 31 -12 40 -4 11 16 6 73 -20 43 -20 80 -38 82 -40z"/>
<path d="M1842 2028 c-17 -17 -15 -32 8 -53 11 -10 20 -29 20 -42 0 -14 4 -21
10 -18 6 3 10 13 10 22 0 9 9 27 21 39 17 18 19 26 10 43 -13 24 -59 29 -79 9z"/>
</g>
</svg>
